<?xml version="1.0" standalone="no"?>
<!DOCTYPE svg PUBLIC "-//W3C//DTD SVG 20010904//EN"
 "http://www.w3.org/TR/2001/REC-SVG-20010904/DTD/svg10.dtd">
<svg version="1.0" xmlns="http://www.w3.org/2000/svg"
 width="607.000000pt" height="607.000000pt" viewBox="0 0 607.000000 607.000000"
 preserveAspectRatio="xMidYMid meet">
<metadata>
Created by potrace 1.11, written by Peter Selinger 2001-2013
</metadata>
<g transform="translate(0.000000,607.000000) scale(0.100000,-0.100000)"
fill="#000000" stroke="none">
<path d="M2967 5564 c-1 -1 -45 -4 -97 -8 -127 -8 -156 -12 -335 -42 -16 -3
-57 -12 -90 -21 -33 -8 -69 -17 -79 -19 -117 -23 -433 -155 -603 -253 -309
-177 -607 -456 -823 -769 -27 -40 -50 -74 -50 -77 0 -3 -15 -28 -34 -57 -28
-45 -97 -173 -101 -188 -1 -3 -16 -36 -33 -73 -18 -38 -32 -70 -32 -72 0 -2
-5 -16 -12 -32 -6 -15 -12 -30 -13 -33 -1 -3 -4 -12 -8 -20 -24 -59 -82 -264
-93 -325 -2 -11 -12 -67 -23 -125 -25 -133 -35 -277 -34 -450 2 -114 8 -235
13 -235 1 0 3 -24 6 -52 4 -46 19 -133 38 -228 4 -16 21 -82 39 -145 17 -63
32 -119 32 -125 0 -5 4 -13 8 -16 5 -3 10 -12 11 -20 2 -8 6 -22 10 -31 4 -9
9 -23 10 -31 1 -8 7 -21 13 -28 6 -8 11 -16 11 -19 1 -12 25 -70 53 -125 17
-33 33 -69 35 -79 2 -11 7 -22 12 -25 12 -8 37 -54 34 -63 -1 -5 3 -8 8 -8 6
0 10 -6 10 -14 0 -8 6 -21 13 -28 15 -16 67 -96 67 -103 0 -3 11 -18 24 -32
13 -14 22 -32 19 -40 -3 -8 0 -13 7 -11 6 2 17 -6 23 -17 7 -11 14 -22 17 -25
34 -33 94 -117 92 -128 -2 -8 1 -11 7 -8 5 4 17 -4 25 -16 9 -12 16 -18 16
-13 0 6 8 -4 16 -22 9 -18 21 -31 28 -30 6 1 10 -4 9 -10 -2 -7 1 -13 6 -13
15 0 61 -46 54 -53 -3 -4 0 -7 8 -7 16 0 55 -40 51 -53 -1 -5 1 -6 6 -3 4 2
23 -9 41 -25 19 -16 38 -29 42 -29 5 0 9 -7 9 -16 0 -8 5 -12 10 -9 5 3 10 3
10 -2 0 -4 16 -19 35 -32 25 -17 32 -27 25 -36 -7 -8 -5 -12 5 -12 8 0 12 4 9
9 -3 4 0 8 6 8 6 0 15 -10 20 -22 5 -13 9 -17 9 -9 1 10 7 7 20 -7 10 -12 24
-22 30 -22 7 0 9 -5 5 -12 -5 -8 -2 -9 10 -5 10 4 19 1 22 -8 4 -8 10 -12 15
-9 5 3 9 0 9 -6 0 -6 4 -8 10 -5 5 3 10 2 10 -3 0 -5 21 -19 48 -32 26 -13 69
-39 96 -58 26 -18 45 -29 42 -23 -4 7 -1 8 8 5 9 -3 13 -10 10 -16 -3 -5 0 -8
7 -7 26 4 119 -43 119 -60 0 -10 3 -12 8 -5 5 8 14 9 32 1 14 -5 31 -11 38
-13 28 -5 43 -14 38 -22 -2 -4 6 -9 20 -10 46 -3 54 -5 54 -14 0 -4 3 -7 8 -7
16 3 72 -14 72 -22 0 -5 6 -6 14 -3 8 3 17 1 20 -4 3 -6 15 -8 26 -5 12 3 20
0 20 -6 0 -7 6 -11 13 -10 28 3 48 -2 42 -11 -3 -5 -1 -10 5 -10 6 0 8 -5 5
-10 -3 -6 0 -13 8 -16 9 -3 13 -14 11 -27 -4 -21 -4 -21 5 -2 6 14 5 23 -5 31
-10 8 -11 13 -2 22 17 17 28 15 22 -5 -5 -15 -3 -15 11 2 16 20 17 20 13 -5
-2 -20 1 -25 20 -26 13 -1 26 5 29 13 3 8 13 11 25 7 28 -8 49 -12 74 -13 12
-1 24 -12 31 -29 l12 -27 -6 27 c-5 25 -3 26 24 19 15 -4 28 -12 28 -18 0 -25
18 -26 35 -3 18 23 20 23 20 5 1 -19 1 -19 11 -2 6 9 15 15 21 11 5 -4 32 -7
59 -8 27 -1 52 -6 56 -11 5 -4 3 -5 -4 -1 -8 4 -11 0 -8 -15 3 -13 0 -28 -5
-34 -5 -6 -5 -16 2 -25 8 -12 9 -12 4 2 -3 10 -1 20 5 24 6 3 8 11 6 18 -3 6
2 21 10 31 15 19 15 19 10 -5 l-6 -25 19 25 c14 17 20 20 20 10 0 -9 -6 -22
-12 -29 -9 -9 -9 -12 -1 -7 6 3 14 0 17 -6 4 -9 5 -8 5 2 -2 30 1 41 11 35 6
-4 7 -11 4 -17 -4 -7 -2 -8 4 -4 6 4 9 14 6 24 -5 15 -5 15 6 -1 6 -9 9 -21 6
-25 -2 -4 -1 -14 5 -22 6 -11 8 -5 5 18 -3 32 -3 32 41 32 32 0 42 -3 38 -12
-4 -7 -1 -6 7 3 14 16 92 24 82 8 -9 -15 6 -10 24 7 11 11 17 13 20 5 2 -6 9
-8 14 -5 17 11 87 14 93 4 3 -5 1 -11 -5 -15 -5 -3 -10 -1 -10 5 0 6 -5 8 -11
4 -8 -4 -6 -10 6 -17 21 -11 36 7 27 32 -5 14 -4 14 13 1 10 -8 16 -10 12 -3
-15 25 29 18 56 -9 20 -21 32 -26 44 -20 11 6 12 11 4 16 -6 4 -11 2 -11 -5 0
-18 -13 -1 -17 21 -2 11 3 20 10 21 6 0 20 2 29 4 9 2 26 -4 38 -12 20 -14 20
-16 5 -33 -8 -9 -13 -24 -10 -33 5 -12 11 -10 34 12 16 14 26 28 25 30 -2 3
-15 -6 -29 -19 -30 -28 -33 -15 -4 16 12 12 27 20 35 17 8 -3 14 1 14 8 0 7
-3 9 -6 6 -4 -3 -15 -2 -25 4 -15 8 -17 6 -12 -8 6 -16 4 -16 -15 1 -26 22
-26 23 -9 23 6 0 23 3 37 7 19 6 21 5 10 -3 -9 -7 -10 -11 -3 -11 7 0 16 8 22
17 9 17 10 16 10 -2 1 -40 4 -54 12 -49 4 2 15 -5 23 -17 l15 -22 21 24 c31
36 43 70 30 83 -8 8 -10 7 -6 -4 7 -16 -28 -80 -43 -80 -5 0 -19 14 -31 30
-12 17 -16 30 -10 30 6 0 8 5 4 11 -5 8 -1 8 13 0 11 -6 23 -7 27 -4 3 3 6 -1
6 -10 0 -20 -11 -22 -29 -5 -11 10 -10 8 0 -9 18 -29 21 -29 40 6 16 27 16 28
-7 25 -13 -1 -24 2 -24 8 0 5 8 8 18 7 9 -1 25 1 35 4 40 16 47 15 61 -5 15
-21 13 -38 -3 -38 -5 0 -8 7 -7 16 0 9 -5 18 -12 20 -7 1 -8 0 -2 -3 5 -2 10
-9 10 -14 0 -6 -4 -8 -9 -5 -5 3 -11 0 -14 -7 -3 -7 3 -13 12 -13 9 -1 23 -4
31 -7 8 -4 22 -2 30 3 13 9 13 12 -1 23 -9 6 -21 22 -28 35 -12 23 -14 22 36
26 9 0 18 -6 20 -14 3 -11 2 -12 -4 -3 -6 9 -12 7 -20 -7 -10 -14 -9 -19 2
-24 9 -3 12 0 8 10 -3 9 0 14 8 12 9 -2 13 5 12 18 -2 15 4 24 18 27 25 7 49
-1 49 -15 0 -6 -6 -5 -15 2 -11 9 -15 9 -15 1 0 -7 -4 -10 -8 -7 -4 2 -9 -5
-9 -16 -1 -12 -8 -25 -15 -31 -9 -6 -7 -7 7 -2 11 4 29 8 40 9 19 1 25 17 26
69 0 14 11 22 22 15 1 -1 13 5 27 12 14 8 31 13 39 11 7 -1 10 2 6 8 -3 7 0 8
9 5 10 -4 16 -1 16 7 0 11 2 11 10 -1 7 -11 3 -18 -12 -26 -12 -7 -28 -10 -34
-7 -7 3 -21 0 -31 -6 -14 -8 -10 -9 20 -7 24 2 36 -1 34 -8 -6 -18 -66 -16
-77 3 -8 14 -9 13 -9 -4 -1 -31 -6 -59 -15 -73 -4 -6 -2 -12 3 -12 11 0 15 13
12 38 -2 13 15 17 22 5 2 -5 3 -3 1 3 -1 6 11 11 26 11 21 0 27 -4 22 -16 -5
-14 -4 -14 9 -1 8 8 15 26 16 39 3 35 10 37 41 10 37 -35 82 -62 90 -55 10 11
11 37 1 30 -5 -3 -9 0 -9 7 0 10 -3 10 -12 1 -20 -20 -32 -13 -13 8 22 24 13
27 -10 4 -9 -9 -19 -13 -23 -9 -4 4 4 15 17 26 13 10 19 19 14 19 -5 0 -14 -5
-21 -12 -15 -15 -15 -3 0 21 10 16 14 17 25 5 7 -7 20 -11 29 -7 12 4 12 8 2
21 -11 13 -10 15 5 9 10 -4 21 -7 23 -7 3 0 2 -4 -1 -10 -3 -5 -1 -10 5 -10 7
0 9 8 5 21 l-7 22 31 -22 c17 -12 31 -26 31 -31 0 -4 10 -10 21 -13 17 -5 15
0 -12 24 -19 17 -26 28 -17 25 12 -3 15 -1 12 9 -8 19 46 10 66 -12 13 -14 13
-15 -2 -10 -23 8 -32 -8 -18 -30 10 -16 10 -16 5 3 -5 18 -2 21 20 19 28 -4
31 1 12 19 -21 22 -57 37 -69 30 -6 -4 -9 -1 -6 7 3 8 16 15 29 17 13 1 29 3
36 4 7 1 10 5 7 10 -3 4 0 8 6 8 6 0 10 -8 8 -18 -2 -11 -11 -16 -23 -14 -14
3 -8 -5 17 -26 33 -26 36 -31 23 -42 -9 -7 -13 -15 -10 -18 5 -6 34 28 35 41
0 4 -7 7 -16 7 -14 0 -14 3 -4 15 9 10 9 15 1 15 -6 0 -11 -5 -11 -11 0 -5 -5
-7 -10 -4 -8 5 -8 11 -1 19 6 7 8 28 5 47 -3 19 -6 39 -6 46 -1 7 -5 10 -10 7
-4 -3 -3 -14 2 -25 7 -11 7 -19 1 -19 -5 0 -12 6 -15 13 -3 6 -3 2 0 -10 5
-24 -29 -52 -41 -33 -3 5 1 10 9 10 9 0 16 4 16 8 0 17 -30 8 -36 -10 -3 -10
-10 -16 -15 -12 -6 3 -5 11 2 21 8 8 -3 5 -24 -7 -20 -12 -37 -25 -37 -29 0
-4 -9 -7 -20 -7 -31 0 -24 10 25 31 25 11 45 24 45 29 0 4 6 6 13 3 7 -3 19 4
25 14 7 10 15 18 20 17 4 -2 40 19 80 46 63 43 76 48 93 38 25 -16 30 -15 27
4 -2 10 2 19 7 21 6 2 11 -10 10 -27 0 -35 2 -34 -38 -14 -22 12 -32 13 -35 5
-2 -6 -9 -8 -15 -4 -7 4 -5 -2 3 -12 14 -17 13 -18 -5 -11 -11 4 -16 4 -12 0
4 -4 -1 -13 -11 -20 -13 -9 -19 -9 -24 -1 -6 9 -8 8 -8 -1 0 -7 -4 -11 -9 -8
-5 4 -8 -2 -6 -11 2 -10 4 -22 4 -26 1 -5 5 -6 10 -2 5 3 12 -4 16 -15 4 -11
11 -17 17 -14 6 4 5 10 -3 15 -8 5 -12 9 -9 10 3 0 15 2 28 5 22 4 22 3 8 -18
-18 -26 -20 -38 -6 -38 5 0 9 3 8 8 -4 22 15 40 40 36 21 -3 23 -2 12 6 -8 5
-11 10 -6 10 6 0 2 6 -9 13 -10 8 -15 19 -11 25 10 17 26 15 20 -3 -4 -8 -1
-15 6 -15 6 0 8 4 5 10 -3 5 -1 10 4 10 6 0 11 -5 11 -11 0 -5 4 -8 9 -4 5 3
13 -4 16 -16 4 -11 9 -19 11 -16 10 10 -10 39 -37 53 -16 8 -29 19 -29 25 0
13 51 -15 72 -40 10 -12 25 -21 33 -21 8 0 14 -6 12 -12 -1 -8 6 -12 18 -10
27 5 39 18 24 27 -8 5 -10 4 -5 -3 4 -7 2 -12 -4 -12 -25 0 -102 58 -94 71 3
5 15 -1 27 -12 33 -31 55 -41 62 -29 5 8 12 7 23 -2 15 -12 16 -11 4 4 -12 15
-11 17 7 15 16 -1 20 -6 16 -22 -6 -19 -5 -19 5 -2 20 31 -22 48 -51 21 -16
-14 -20 -12 -51 16 -26 25 -29 30 -13 28 11 -2 23 -10 27 -18 6 -11 7 -10 5 5
-2 11 -8 19 -14 18 -6 -1 -10 10 -10 24 l0 27 18 -24 c11 -14 24 -31 29 -37 8
-9 8 -13 0 -13 -5 0 -10 -5 -10 -10 0 -6 8 -5 19 2 20 12 20 12 0 26 -10 7
-19 21 -19 30 1 15 3 14 16 -3 14 -19 15 -19 12 5 -2 18 3 28 20 35 24 10 31
28 8 19 -9 -3 -13 1 -13 13 3 27 24 36 48 20 12 -9 16 -18 10 -21 -5 -4 -12
-2 -16 4 -3 5 -11 10 -16 10 -6 0 -4 -7 5 -15 20 -20 48 -9 41 16 -5 14 -2 17
8 13 8 -3 22 3 32 12 17 17 18 17 37 -5 10 -13 20 -22 21 -20 1 2 9 13 17 23
8 11 11 17 5 15 -13 -7 -39 21 -43 46 -2 17 1 15 21 -7 23 -29 51 -36 62 -18
4 6 11 8 16 5 5 -4 9 -1 9 4 0 14 -17 14 -25 1 -3 -5 -15 -10 -26 -10 -11 0
-17 5 -14 10 4 6 10 8 15 5 4 -3 13 2 20 10 9 10 9 15 1 15 -6 0 -11 -4 -11
-8 0 -12 -32 -11 -48 1 -13 10 1 37 20 37 6 0 5 -7 -2 -15 -9 -10 -9 -15 -1
-15 6 0 11 5 11 12 0 6 3 8 7 5 3 -4 15 1 26 10 18 16 20 16 14 1 -7 -20 27
-53 47 -45 10 4 16 -2 20 -16 4 -18 4 -18 3 3 -2 21 -6 24 -27 22 -14 -2 -22
-1 -18 3 4 4 -1 20 -12 35 -17 24 -18 29 -5 40 8 6 20 8 27 4 8 -5 8 -1 -2 11
-13 16 -13 18 0 13 8 -3 24 2 34 11 18 14 19 14 14 0 -4 -9 -2 -22 3 -30 7
-11 9 -11 9 -1 0 7 5 10 11 6 6 -3 4 5 -6 19 -9 14 -22 24 -29 21 -7 -3 -13 2
-13 11 0 9 6 14 13 11 8 -3 11 0 7 10 -7 20 15 44 35 37 10 -3 13 -1 7 4 -16
13 -16 40 0 40 10 0 14 -6 10 -16 -5 -12 -3 -13 6 -4 13 13 3 37 -12 28 -5 -4
-9 -1 -9 4 0 13 27 14 35 2 7 -12 65 -11 65 1 0 5 -4 6 -10 3 -5 -3 -10 -2
-10 3 0 19 14 21 32 5 28 -25 21 -7 -8 22 -25 25 -52 29 -47 6 4 -13 -13 -15
-22 -2 -3 5 4 16 16 25 13 8 18 19 14 26 -5 8 -3 11 6 8 8 -3 13 -11 11 -17
-1 -7 2 -10 8 -6 5 3 10 1 10 -4 0 -6 5 -11 11 -11 8 0 8 4 -1 14 -9 12 -7 15
12 14 36 -2 49 -16 37 -42 -10 -21 -10 -21 6 -1 9 11 19 19 23 17 4 -2 8 5 9
15 2 15 1 15 -6 -2 -5 -11 -10 -15 -11 -10 -1 6 -3 15 -5 20 -1 6 -3 16 -3 23
-1 7 -13 17 -27 24 -13 6 -22 15 -19 20 3 4 15 1 27 -7 25 -18 37 -19 37 -4 0
5 -4 8 -9 5 -4 -3 -17 1 -27 8 -14 10 -23 11 -32 4 -27 -23 -20 -1 8 26 30 27
30 27 28 5 -2 -17 3 -24 17 -26 12 -1 14 0 4 3 -10 3 -16 16 -16 34 0 24 3 28
14 18 8 -6 12 -17 9 -25 -3 -7 -1 -13 4 -13 5 0 10 10 12 23 2 16 9 21 23 19
16 -2 17 -1 5 7 -8 5 -11 14 -6 18 4 4 16 -2 26 -15 10 -12 22 -22 26 -22 4 0
-1 9 -10 19 -10 10 -14 21 -9 23 4 3 3 3 -4 2 -6 -2 -17 4 -24 12 -10 12 -8
19 10 38 12 13 21 29 19 36 -2 7 2 14 8 17 12 4 12 -25 1 -44 -4 -6 0 -13 8
-16 10 -4 12 -1 8 10 -5 12 -3 14 8 8 12 -8 12 -6 0 8 -8 10 -10 21 -6 25 4 4
10 1 12 -5 3 -7 9 -13 15 -13 7 0 7 5 -1 13 -11 14 -5 27 12 27 6 0 8 -3 4 -6
-3 -4 0 -13 8 -20 18 -19 31 -18 15 1 -7 9 -13 25 -14 37 -1 22 -26 39 -26 18
0 -6 4 -8 10 -5 17 11 11 -7 -7 -21 -22 -17 -41 -18 -25 -2 23 23 13 35 -28
35 -24 0 -37 -4 -33 -10 3 -6 1 -7 -6 -3 -24 15 8 33 55 30 29 -1 42 1 33 6
-7 5 -10 12 -6 16 4 5 19 -4 32 -18 13 -14 21 -29 17 -32 -3 -4 2 -4 13 -1 20
7 20 6 1 -9 -11 -9 -15 -16 -9 -16 6 0 16 6 22 14 9 11 6 17 -14 30 -14 9 -23
21 -21 25 3 4 -1 16 -8 26 -11 15 -11 21 3 37 20 24 34 23 21 -1 -10 -20 -4
-51 10 -51 4 0 10 -9 13 -20 3 -13 10 -18 21 -14 9 3 16 11 16 16 0 6 -6 5
-15 -2 -8 -7 -15 -8 -15 -2 0 13 25 33 33 25 4 -3 9 2 13 11 3 9 10 13 15 10
5 -3 6 3 2 12 -4 11 -8 13 -11 6 -2 -7 -8 -10 -13 -7 -5 4 -6 -2 -2 -12 3 -10
3 -15 -2 -11 -4 4 -14 3 -22 -4 -11 -9 -18 -8 -30 4 -14 14 -14 19 -1 37 8 11
18 18 21 14 4 -3 7 -1 7 6 0 7 4 10 9 7 5 -3 14 1 21 9 9 10 9 15 1 15 -6 0
-11 -4 -11 -8 0 -9 -9 -11 -59 -14 -17 -1 -28 -5 -25 -10 3 -4 0 -8 -6 -8 -6
0 -10 8 -8 17 2 11 12 17 23 16 11 -1 14 0 8 3 -20 9 -15 23 7 21 12 -1 18 -7
16 -14 -3 -7 1 -10 10 -6 7 3 14 9 14 14 0 4 6 7 13 5 6 -1 9 -1 4 1 -4 3 -4
10 0 16 4 7 -1 6 -10 -2 -23 -18 -54 4 -36 25 6 8 16 14 21 14 6 0 5 -7 -2
-15 -9 -10 -9 -15 -1 -15 6 0 11 5 11 11 0 5 5 7 10 4 18 -11 10 4 -16 30 -14
14 -22 30 -19 35 9 15 25 12 19 -4 -3 -8 8 -22 29 -35 19 -12 37 -29 39 -39 5
-19 38 -27 38 -9 0 5 -6 7 -12 5 -7 -3 -18 5 -23 16 -9 16 -8 24 4 33 14 10
14 14 2 25 -12 11 -13 10 -7 -6 5 -14 2 -17 -9 -12 -10 4 -14 2 -9 -5 4 -7 2
-10 -5 -8 -19 7 -16 16 31 79 34 47 44 56 50 42 6 -15 7 -15 7 -1 1 9 -6 22
-14 29 -16 13 -31 6 -68 -35 -18 -20 -18 -20 -12 1 4 15 -1 24 -19 32 l-24 11
23 65 c13 36 21 66 18 66 -3 0 0 6 6 13 6 8 8 17 4 21 -4 4 -1 11 6 16 8 4 14
22 13 39 0 17 4 31 9 31 6 0 7 -5 3 -12 -4 -7 -3 -8 4 -4 9 5 9 13 2 26 -7 12
-7 27 0 44 5 14 7 26 4 26 -4 0 -1 6 5 13 6 8 8 17 4 21 -4 3 2 13 13 22 10 8
13 13 7 9 -9 -4 -11 3 -8 27 3 18 6 40 7 48 1 8 8 21 17 28 14 11 14 11 -2 6
-16 -6 -17 -3 -11 22 4 16 12 32 18 36 8 5 7 8 -1 8 -6 0 -10 9 -8 20 6 30 15
41 27 34 7 -4 8 -2 4 4 -4 6 -14 8 -23 5 -12 -5 -14 -3 -8 8 5 7 10 59 11 115
l2 101 -30 -3 c-16 -2 -34 -6 -39 -9 -5 -4 -9 -1 -9 5 0 6 -5 8 -11 5 -39 -25
-126 -2 -178 46 -11 11 -21 17 -21 14 0 -3 -23 6 -50 20 -28 14 -48 30 -45 35
3 5 -1 7 -9 4 -17 -6 -61 20 -94 56 -13 14 -32 35 -43 47 -12 13 -17 28 -13
34 4 7 3 9 -4 5 -6 -3 -21 8 -33 26 -13 18 -28 38 -34 44 -5 7 -21 26 -35 44
-14 17 -33 41 -42 52 -10 11 -15 25 -12 30 3 4 0 7 -8 6 -7 -2 -12 3 -10 10 1
6 -5 12 -15 12 -9 0 -14 3 -10 6 3 3 -5 18 -18 32 -57 64 -64 75 -59 83 3 5
-2 9 -10 9 -9 0 -16 4 -16 10 0 5 -11 20 -25 34 -14 14 -25 28 -25 32 0 3 -14
22 -30 41 -17 19 -27 39 -24 45 4 6 3 8 -3 5 -6 -4 -23 10 -39 31 -15 20 -30
39 -34 42 -3 3 -18 23 -35 45 -16 22 -34 45 -40 52 -5 7 -15 18 -20 25 -6 7
-27 34 -49 60 -22 28 -35 52 -30 59 4 7 3 9 -4 5 -6 -3 -23 10 -39 30 -34 44
-199 253 -216 274 -44 54 -66 88 -62 93 3 4 2 5 -1 2 -8 -5 -34 20 -34 33 0 6
-7 12 -15 16 -8 3 -15 12 -15 21 0 8 -5 15 -11 15 -5 0 -7 5 -3 12 4 7 3 8 -4
4 -6 -4 -16 4 -23 16 -7 13 -18 27 -25 31 -8 4 -14 12 -14 17 0 6 -8 18 -17
28 -21 22 -30 34 -98 122 -28 36 -52 67 -55 70 -3 3 -16 19 -28 35 -34 44 -73
93 -104 130 -16 18 -28 35 -28 39 0 3 -8 14 -17 24 -37 39 -63 73 -63 83 0 5
-4 7 -10 4 -5 -3 -10 0 -10 7 0 8 -12 28 -27 45 -16 17 -37 43 -48 57 -11 14
-29 36 -40 49 -11 13 -45 56 -75 95 l-55 71 -60 2 c-139 3 -197 4 -198 3z
m2463 -3405 c0 -5 4 -8 9 -4 5 3 12 1 15 -4 4 -5 0 -11 -8 -13 -10 -2 -6 -9
12 -22 14 -11 23 -15 19 -10 -7 11 51 70 59 61 4 -3 -6 -18 -20 -32 -14 -14
-26 -29 -26 -33 0 -9 -45 -62 -53 -62 -3 0 -5 9 -4 19 0 11 4 19 7 19 28 -2
32 3 15 22 -10 12 -25 18 -32 16 -7 -3 -15 -1 -18 4 -4 6 -2 10 3 10 6 0 8 9
5 20 -3 11 0 20 6 20 6 0 11 -5 11 -11z m18 -69 c3 -7 0 -10 -5 -7 -5 3 -19
-1 -31 -9 -18 -12 -20 -19 -11 -35 8 -16 7 -25 -5 -38 -13 -14 -13 -20 -3 -31
10 -10 9 -11 -1 -6 -8 5 -22 -2 -36 -17 -18 -19 -21 -29 -13 -43 7 -13 5 -21
-9 -31 -10 -7 -23 -12 -29 -9 -6 2 -11 -5 -11 -15 0 -15 3 -16 16 -5 30 26 39
27 51 4 11 -21 11 -22 -5 -9 -14 12 -19 12 -34 -1 -23 -20 -52 -19 -48 1 7 36
18 49 37 44 11 -3 19 0 19 6 0 7 -4 10 -9 6 -5 -3 -13 0 -17 6 -5 8 -3 9 6 4
10 -6 12 -4 7 8 -3 10 -2 17 4 17 6 0 7 5 3 12 -5 7 -3 8 6 3 9 -6 10 -2 5 16
-7 21 -6 22 8 11 12 -10 17 -10 23 -1 4 7 3 9 -3 6 -6 -4 -14 0 -17 9 -4 11
-2 15 7 11 8 -3 20 -1 28 5 11 8 10 9 -3 4 -10 -3 -18 -1 -18 4 0 9 15 14 33
11 5 -1 5 3 2 9 -4 6 -14 9 -22 5 -12 -4 -13 -2 -5 7 10 13 12 18 12 39 0 6 7
8 16 5 14 -5 15 -4 5 8 -11 12 -8 14 15 12 16 -2 30 -9 32 -16z m-131 -315
c-4 -10 -30 -16 -72 -16 -15 0 -16 -2 -6 -8 11 -7 9 -10 -7 -15 -20 -7 -23
-20 -9 -43 11 -18 -8 -16 -23 2 -9 10 -9 15 -1 15 6 0 10 3 9 8 -3 15 26 63
37 58 7 -2 17 -1 23 3 17 10 53 8 49 -4z m-34 -27 c-4 -7 -8 -19 -8 -27 0 -8
-7 -17 -15 -19 -13 -5 -13 -3 0 13 9 11 10 16 3 11 -7 -4 -13 -3 -13 3 0 5 8
15 18 20 23 14 25 13 15 -1z m-38 -73 c-1 -25 -6 -50 -12 -56 -13 -13 -33 -4
-33 14 0 9 2 9 8 0 6 -9 11 -7 20 7 9 14 9 20 1 20 -8 0 -8 4 0 14 8 9 8 16 2
20 -6 4 -8 13 -5 21 11 27 21 6 19 -40z m-35 -4 c13 -26 13 -28 -5 -28 -9 0
-14 6 -11 13 3 8 1 16 -4 19 -5 3 -7 -9 -5 -26 3 -25 -3 -38 -31 -67 -33 -34
-34 -37 -17 -49 10 -7 24 -17 31 -23 6 -6 12 -7 12 -3 0 11 20 -20 20 -31 0
-5 -6 -4 -12 2 -7 5 -24 9 -38 8 -14 -1 -33 7 -45 19 -11 11 -16 16 -12 9 9
-14 -8 -28 -23 -19 -11 7 -12 4 -14 -38 -2 -29 33 -74 35 -46 1 8 1 17 0 22
-1 9 13 9 22 1 8 -9 -15 -44 -30 -44 -7 0 -16 8 -21 17 -9 15 -13 13 -37 -13
-25 -27 -27 -28 -40 -10 -11 14 -11 21 -2 31 16 17 31 7 17 -10 -8 -10 -8 -15
1 -21 7 -4 9 -3 5 4 -3 6 2 16 13 21 23 13 34 38 19 47 -7 4 -8 3 -4 -4 4 -7
2 -12 -4 -12 -6 0 -8 -4 -5 -10 3 -5 1 -10 -4 -10 -15 0 -14 26 2 42 7 7 24
29 37 48 33 47 46 60 62 60 10 0 9 3 -2 10 -11 7 -11 10 -2 10 7 0 11 4 8 9
-3 5 5 19 17 32 13 13 26 32 30 42 8 22 24 22 37 -2z m-125 -201 c-3 -5 -10
-10 -16 -10 -5 0 -9 5 -9 10 0 6 7 10 16 10 8 0 12 -4 9 -10z m-81 -110 c10 0
14 -5 11 -10 -4 -6 -11 -8 -16 -4 -5 3 -9 2 -8 -3 4 -15 -13 -44 -33 -54 -17
-9 -19 -8 -14 8 3 10 2 24 -3 31 -6 10 -10 10 -21 -3 -11 -13 -10 -15 4 -9 9
3 16 1 16 -5 0 -6 -4 -11 -9 -11 -6 0 -8 -9 -6 -21 3 -13 0 -19 -8 -16 -7 2
-10 13 -9 23 3 15 1 16 -9 7 -10 -10 -10 -15 1 -28 17 -21 -4 -20 -26 2 -16
16 -16 16 -9 -7 7 -22 6 -24 -9 -11 -12 10 -14 17 -6 25 6 6 15 11 19 11 5 0
28 24 51 54 38 48 44 52 55 38 7 -10 20 -17 29 -17z m-37 -102 c2 -16 -1 -18
-9 -10 -9 9 -17 3 -32 -21 -11 -17 -20 -34 -19 -37 1 -3 -5 -11 -12 -17 -11
-10 -17 -9 -29 9 -14 20 -14 23 -1 31 9 4 13 12 10 17 -3 5 -1 11 5 15 13 8
13 -28 -1 -42 -8 -8 -7 -13 2 -18 8 -5 10 -4 5 4 -4 6 -1 14 8 17 8 3 12 12
10 19 -3 7 4 19 16 25 11 6 18 14 16 18 -3 5 3 8 13 9 10 1 17 -6 18 -19z
m-122 -45 c-14 -8 -29 -11 -34 -9 -5 3 -8 -2 -7 -12 1 -12 -5 -16 -19 -14
l-20 4 20 -16 c18 -15 18 -15 1 -10 -15 6 -17 3 -11 -16 5 -16 4 -20 -4 -15
-7 4 -18 1 -26 -5 -8 -7 -15 -9 -15 -4 0 5 -5 2 -10 -6 -6 -9 -10 -10 -10 -3
0 7 -11 2 -25 -11 -14 -13 -25 -27 -25 -32 0 -5 4 -3 9 5 5 7 15 11 22 9 9 -3
2 -11 -18 -22 -25 -12 -33 -13 -33 -4 0 9 -3 9 -9 -2 -6 -8 -7 -18 -5 -22 3
-4 0 -8 -6 -8 -7 0 -9 7 -6 16 3 9 2 12 -5 9 -6 -4 -8 -13 -5 -20 5 -15 -20
-28 -36 -18 -7 3 -8 1 -4 -5 4 -7 2 -12 -5 -12 -7 0 -10 -3 -7 -6 4 -3 16 0
28 6 18 10 25 9 32 -1 8 -11 9 -10 4 4 -3 9 -4 17 -2 17 3 0 13 3 23 7 16 6
17 5 3 -13 -14 -18 -14 -18 3 -5 9 8 20 11 23 8 3 -3 -6 -13 -20 -22 -20 -14
-29 -15 -40 -6 -15 13 -32 -1 -22 -18 3 -4 -3 -16 -14 -26 -18 -16 -19 -16
-17 3 0 11 5 18 9 16 4 -3 8 -1 8 4 0 16 -31 23 -46 11 -8 -6 -11 -16 -7 -23
4 -6 -1 -5 -11 3 -16 14 -16 16 10 29 16 8 36 24 46 36 9 11 17 18 18 14 0 -4
11 4 25 18 14 14 30 22 35 19 6 -3 10 1 10 9 0 9 3 16 8 16 4 0 25 17 47 39
22 21 45 36 52 34 8 -3 11 0 9 8 -3 8 13 29 36 47 33 26 43 30 55 20 12 -10
10 -14 -12 -25z m5 -25 c0 -7 -15 -27 -32 -46 -23 -23 -27 -31 -14 -26 12 5
17 4 13 -3 -3 -5 3 -17 14 -27 12 -10 18 -20 15 -23 -3 -3 -12 2 -21 11 -20
20 -29 20 -45 1 -7 -9 -19 -14 -26 -11 -7 3 -16 0 -20 -6 -5 -7 -12 -5 -21 7
-13 19 -19 44 -6 32 3 -4 17 0 31 9 26 17 38 13 29 -10 -4 -9 -13 -13 -21 -10
-8 3 -16 1 -20 -4 -3 -5 3 -8 12 -7 36 4 49 16 47 45 -1 16 1 28 4 27 3 -1 6
1 6 4 0 10 37 49 47 49 4 0 8 -5 8 -12z m-180 -158 c0 -5 -4 -10 -10 -10 -5 0
-10 5 -10 10 0 6 5 10 10 10 6 0 10 -4 10 -10z m-191 -146 c-9 -11 -9 -18 -1
-26 20 -20 13 -32 -8 -13 -11 10 -17 22 -13 28 3 6 1 7 -5 3 -6 -4 -9 -13 -6
-20 3 -9 -2 -13 -18 -11 -38 4 -39 5 -33 15 3 5 12 7 20 3 8 -3 15 -1 15 4 0
6 11 15 25 21 14 6 25 15 24 19 -3 18 4 26 8 10 3 -10 -1 -25 -8 -33z m-205
-103 c9 -14 -29 -55 -42 -47 -16 10 -15 22 4 40 17 18 30 20 38 7z m-108 -47
c-11 -8 -14 -14 -8 -14 7 0 12 -5 12 -11 0 -8 -5 -7 -15 1 -9 7 -14 19 -11 27
10 25 -3 13 -19 -17 -9 -16 -20 -30 -26 -30 -6 0 -6 8 2 21 9 17 8 20 -3 14
-7 -5 -10 -5 -6 -1 3 4 21 16 40 26 38 21 66 8 34 -16z m44 17 c0 -6 -4 -13
-10 -16 -5 -3 -10 1 -10 9 0 9 5 16 10 16 6 0 10 -4 10 -9z m-120 -42 c0 -5
-4 -9 -10 -9 -5 0 -10 7 -10 16 0 8 5 12 10 9 6 -3 10 -10 10 -16z m10 -34 c7
-8 8 -15 2 -15 -5 0 -15 7 -22 15 -7 8 -8 15 -2 15 5 0 15 -7 22 -15z m75 -55
c3 -5 2 -10 -4 -10 -5 0 -13 5 -16 10 -3 6 -2 10 4 10 5 0 13 -4 16 -10z
m-258 -16 c2 -5 -6 -10 -17 -10 -20 0 -25 7 -13 20 9 8 26 3 30 -10z m-1380
-60 c2 -5 -6 -10 -16 -11 -14 -1 -18 3 -14 13 6 16 25 14 30 -2z m1278 6 c-3
-5 -11 -10 -16 -10 -6 0 -7 5 -4 10 3 6 11 10 16 10 6 0 7 -4 4 -10z m-351
-26 c5 -14 4 -15 -9 -4 -17 14 -19 20 -6 20 5 0 12 -7 15 -16z m-700 -19 c-4
-8 -9 -15 -13 -15 -4 0 -8 7 -8 15 0 8 6 15 13 15 8 0 11 -6 8 -15z"/>
<path d="M5149 1624 c-7 -9 -14 -22 -15 -29 -2 -11 2 -12 17 -2 11 7 14 14 8
16 -8 2 -7 6 2 12 7 4 11 11 8 14 -4 3 -12 -2 -20 -11z"/>
<path d="M5101 1546 c-9 -11 -8 -15 5 -20 9 -4 19 -4 22 -1 3 3 0 5 -7 5 -8 0
-11 7 -7 15 7 19 2 19 -13 1z"/>
<path d="M5140 1510 c0 -5 5 -10 11 -10 5 0 7 5 4 10 -3 6 -8 10 -11 10 -2 0
-4 -4 -4 -10z"/>
<path d="M4951 1361 c-7 -5 -10 -14 -7 -20 4 -6 12 -8 18 -5 8 5 9 1 5 -10 -4
-10 -3 -15 3 -11 9 6 9 40 -1 49 -2 3 -11 1 -18 -3z"/>
<path d="M4737 1146 c-4 -10 -1 -13 8 -9 8 3 12 9 9 14 -7 12 -11 11 -17 -5z"/>
<path d="M4820 1170 c-9 -6 -10 -10 -3 -10 6 0 15 5 18 10 8 12 4 12 -15 0z"/>
<path d="M4242 764 c-7 -8 -8 -14 -3 -14 10 0 25 19 20 25 -2 1 -10 -3 -17
-11z"/>
<path d="M5175 3199 c-4 -6 -5 -12 -2 -15 2 -3 7 2 10 11 7 17 1 20 -8 4z"/>
<path d="M5589 2693 c-13 -16 -12 -17 4 -4 9 7 17 15 17 17 0 8 -8 3 -21 -13z"/>
<path d="M5576 2621 c-4 -5 3 -7 14 -4 23 6 26 13 6 13 -8 0 -17 -4 -20 -9z"/>
<path d="M5550 2611 c0 -10 29 -36 34 -30 1 2 -6 12 -16 22 -10 9 -18 13 -18
8z"/>
<path d="M5735 2610 c-3 -5 -1 -10 4 -10 6 0 11 5 11 10 0 6 -2 10 -4 10 -3 0
-8 -4 -11 -10z"/>
<path d="M5610 2595 c-10 -13 -11 -18 -1 -28 10 -9 11 -8 5 7 -5 12 -4 17 3
13 5 -3 10 0 10 8 0 19 -2 19 -17 0z"/>
<path d="M5654 2590 c0 -13 4 -16 10 -10 7 7 7 13 0 20 -6 6 -10 3 -10 -10z"/>
<path d="M5546 2555 c-11 -8 -16 -15 -10 -15 5 0 18 7 28 15 11 8 16 15 10 15
-5 0 -18 -7 -28 -15z"/>
<path d="M5580 2550 c-9 -6 -10 -10 -3 -10 6 0 15 5 18 10 8 12 4 12 -15 0z"/>
<path d="M5666 2528 c3 -5 10 -6 15 -3 13 9 11 12 -6 12 -8 0 -12 -4 -9 -9z"/>
<path d="M5536 2522 c-3 -2 -2 -11 1 -20 4 -10 2 -13 -5 -8 -7 4 -10 -1 -7
-14 2 -11 -1 -20 -6 -20 -6 0 -7 -5 -4 -11 8 -12 16 -7 19 14 1 8 9 25 18 39
13 20 14 25 2 25 -8 0 -16 -2 -18 -5z"/>
<path d="M5586 2515 c-3 -8 -2 -14 2 -14 21 3 32 -2 26 -13 -5 -7 -3 -8 6 -3
10 6 10 11 -3 20 -9 7 -14 15 -10 18 3 4 2 7 -4 7 -6 0 -13 -7 -17 -15z"/>
<path d="M5646 2507 c3 -10 9 -15 12 -12 3 3 0 11 -7 18 -10 9 -11 8 -5 -6z"/>
<path d="M5556 2483 c-6 -14 -5 -15 5 -6 7 7 10 15 7 18 -3 3 -9 -2 -12 -12z"/>
<path d="M5579 2473 c-1 -5 -1 -12 0 -17 1 -5 -6 -5 -16 -2 -9 4 -14 4 -10 0
4 -4 -1 -13 -11 -20 -16 -11 -16 -13 2 -33 19 -21 39 -24 36 -6 -1 6 9 13 22
17 22 7 22 7 -2 5 -14 -1 -24 -8 -22 -15 4 -20 -16 -14 -29 10 -10 18 -9 20 5
15 10 -4 15 -3 12 2 -3 5 1 12 10 15 9 3 12 11 8 18 -5 8 -2 9 10 5 10 -4 15
-3 11 3 -7 12 -24 13 -26 3z"/>
<path d="M5670 2471 c0 -6 4 -13 10 -16 6 -3 7 1 4 9 -7 18 -14 21 -14 7z"/>
<path d="M5760 2450 c-12 -7 -10 -9 7 -7 12 0 19 5 17 9 -6 10 -6 10 -24 -2z"/>
<path d="M5595 2440 c-3 -6 1 -7 9 -4 18 7 21 14 7 14 -6 0 -13 -4 -16 -10z"/>
<path d="M5648 2442 c-17 -7 -17 -8 0 -18 15 -10 18 -8 18 7 0 11 0 19 -1 18
0 0 -8 -4 -17 -7z"/>
<path d="M5719 2408 c-5 -9 -5 -48 -1 -43 6 6 11 45 5 45 -2 0 -4 -1 -4 -2z"/>
<path d="M5533 2375 c15 -14 33 -25 40 -25 7 0 0 8 -15 18 -16 9 -28 20 -28
24 0 5 -6 8 -12 8 -7 0 0 -12 15 -25z"/>
<path d="M5610 2386 c0 -8 4 -18 10 -21 6 -4 7 1 3 11 -5 13 -3 15 7 9 9 -5
11 -4 6 3 -10 17 -26 15 -26 -2z"/>
<path d="M5796 2392 c-3 -5 1 -9 9 -9 8 0 12 4 9 9 -3 4 -7 8 -9 8 -2 0 -6 -4
-9 -8z"/>
<path d="M5502 2375 c4 -4 3 -14 -2 -20 -13 -15 15 -29 35 -18 10 6 6 13 -13
27 -15 11 -24 16 -20 11z m23 -25 c3 -5 1 -10 -4 -10 -6 0 -11 5 -11 10 0 6 2
10 4 10 3 0 8 -4 11 -10z"/>
<path d="M5593 2363 c0 -12 3 -20 6 -18 2 3 10 -3 18 -13 13 -16 13 -15 4 3
-22 43 -30 51 -28 28z"/>
<path d="M5796 2343 c-6 -14 -5 -15 5 -6 7 7 10 15 7 18 -3 3 -9 -2 -12 -12z"/>
<path d="M5637 2339 c7 -7 15 -10 18 -7 3 3 -2 9 -12 12 -14 6 -15 5 -6 -5z"/>
<path d="M5563 2333 c-17 -6 -16 -40 1 -46 17 -7 26 1 26 24 0 21 -10 28 -27
22z m17 -25 c0 -16 -3 -19 -11 -11 -6 6 -8 16 -5 22 11 17 16 13 16 -11z"/>
<path d="M5477 2323 c-6 -6 2 -55 10 -63 3 -3 3 5 0 18 -3 14 0 25 10 31 14 7
14 9 0 14 -8 3 -17 3 -20 0z"/>
<path d="M5610 2300 c6 -11 13 -20 16 -20 2 0 0 9 -6 20 -6 11 -13 20 -16 20
-2 0 0 -9 6 -20z"/>
<path d="M5773 2301 c0 -11 5 -18 9 -15 4 3 5 11 1 19 -7 21 -12 19 -10 -4z"/>
<path d="M5500 2289 c0 -5 4 -8 9 -4 22 13 17 -11 -5 -28 -24 -18 -24 -18 -33
5 -7 16 -10 18 -10 6 -1 -9 4 -20 11 -24 7 -5 5 -11 -7 -21 -11 -7 -14 -13 -9
-13 6 0 15 5 22 12 7 7 12 8 12 2 0 -16 -21 -33 -35 -28 -7 3 -16 -1 -21 -8
-4 -7 -4 -10 1 -6 4 4 16 3 26 -2 22 -12 41 -5 57 21 11 16 11 24 1 36 -10 12
-10 16 2 24 22 14 33 11 19 -6 -9 -10 -9 -15 -1 -15 6 0 11 5 11 10 0 6 8 10
17 10 10 0 0 9 -22 20 -46 23 -45 23 -45 9z m14 -57 c7 -11 -22 -52 -36 -52
-6 0 -3 9 6 19 10 11 15 25 11 30 -3 6 -2 11 4 11 5 0 12 -4 15 -8z"/>
<path d="M5715 2291 c-3 -5 -2 -12 3 -15 5 -3 9 1 9 9 0 17 -3 19 -12 6z"/>
<path d="M5607 2260 c10 -11 19 -20 21 -20 1 0 -2 9 -8 20 -6 11 -15 20 -20
20 -6 0 -2 -9 7 -20z"/>
<path d="M5590 2255 c0 -5 5 -17 10 -25 5 -8 10 -10 10 -5 0 6 -5 17 -10 25
-5 8 -10 11 -10 5z"/>
<path d="M5770 2253 c0 -6 8 -17 18 -24 16 -13 16 -13 2 6 -8 11 -16 22 -17
24 -2 2 -3 0 -3 -6z"/>
<path d="M5695 2240 c-4 -6 -12 -7 -18 -4 -7 4 -9 4 -5 -1 4 -4 2 -15 -4 -24
-10 -12 -7 -12 8 2 11 9 23 15 26 12 2 -3 5 2 5 10 0 18 -3 19 -12 5z"/>
<path d="M5570 2233 c5 -2 10 -9 10 -14 0 -6 -3 -8 -8 -5 -4 2 -15 -2 -25 -9
-17 -13 -17 -14 3 -20 12 -4 24 -4 27 -1 4 3 -2 6 -12 6 -10 0 -15 3 -11 8 4
4 13 7 19 7 16 0 15 28 -1 31 -7 1 -8 0 -2 -3z"/>
<path d="M5615 2211 c-9 -15 15 -25 28 -12 9 9 7 10 -7 5 -13 -5 -17 -4 -12 4
4 7 5 12 2 12 -3 0 -7 -4 -11 -9z"/>
<path d="M5595 2155 c4 -37 12 -40 12 -5 0 17 -4 30 -8 30 -4 0 -6 -11 -4 -25z"/>
<path d="M5643 2165 c-3 -9 -3 -18 -1 -21 3 -3 8 4 11 16 6 23 -1 27 -10 5z"/>
<path d="M5672 2154 c3 -3 12 -6 20 -8 7 -1 20 -5 28 -10 12 -7 13 -6 3 4 -7
8 -23 15 -35 17 -12 2 -19 1 -16 -3z"/>
<path d="M5574 2132 c7 -11 -5 -16 -30 -13 -6 1 -18 -6 -25 -16 -9 -11 -10
-14 -1 -9 6 4 12 2 12 -3 0 -6 5 -11 11 -11 8 0 7 6 -2 17 -12 15 -12 16 3 11
22 -9 56 16 38 27 -9 5 -11 4 -6 -3z"/>
<path d="M5580 2081 c13 -26 13 -34 -2 -25 -7 4 -8 3 -4 -4 4 -6 13 -9 21 -6
12 5 12 9 -2 30 -18 29 -28 32 -13 5z"/>
<path d="M5512 2060 c7 -10 14 -18 15 -16 6 6 -9 36 -18 36 -5 0 -4 -9 3 -20z"/>
<path d="M5550 2070 c-9 -6 -10 -10 -3 -10 6 0 15 5 18 10 8 12 4 12 -15 0z"/>
<path d="M5540 2032 c0 -5 7 -9 15 -9 8 0 15 4 15 9 0 4 -7 8 -15 8 -8 0 -15
-4 -15 -8z"/>
<path d="M5630 2030 c0 -4 7 -7 15 -6 23 3 26 12 5 13 -11 1 -20 -2 -20 -7z"/>
<path d="M5510 2010 c0 -5 5 -10 10 -10 6 0 10 5 10 10 0 6 -4 10 -10 10 -5 0
-10 -4 -10 -10z"/>
<path d="M5461 1984 c0 -11 3 -14 6 -6 3 7 2 16 -1 19 -3 4 -6 -2 -5 -13z"/>
<path d="M5540 1985 c0 -8 2 -15 4 -15 2 0 6 7 10 15 3 8 1 15 -4 15 -6 0 -10
-7 -10 -15z"/>
<path d="M5609 1953 c-13 -16 -12 -17 4 -4 16 13 21 21 13 21 -2 0 -10 -8 -17
-17z"/>
<path d="M5476 1945 c4 -8 8 -15 10 -15 2 0 4 7 4 15 0 8 -4 15 -10 15 -5 0
-7 -7 -4 -15z"/>
<path d="M5535 1950 c-3 -5 -1 -10 4 -10 6 0 11 5 11 10 0 6 -2 10 -4 10 -3 0
-8 -4 -11 -10z"/>
<path d="M5510 1941 c0 -6 4 -13 10 -16 6 -3 7 1 4 9 -7 18 -14 21 -14 7z"/>
<path d="M5442 1897 c-31 -18 -42 -37 -21 -37 5 0 8 4 5 9 -5 8 35 32 62 37
22 4 26 13 6 12 -11 -1 -34 -10 -52 -21z"/>
<path d="M5570 1916 c0 -2 7 -7 16 -10 8 -3 12 -2 9 4 -6 10 -25 14 -25 6z"/>
<path d="M5680 1910 c-9 -6 -10 -10 -3 -10 6 0 15 5 18 10 8 12 4 12 -15 0z"/>
<path d="M5494 1889 c-4 -7 -3 -9 4 -5 5 3 13 0 15 -6 4 -9 6 -10 6 -1 1 17
-16 25 -25 12z"/>
<path d="M5547 1893 c7 -2 9 -12 6 -21 -6 -18 -5 -17 14 8 10 13 8 16 -10 17
-12 0 -17 -1 -10 -4z"/>
<path d="M5576 1863 c-6 -14 -5 -15 5 -6 7 7 10 15 7 18 -3 3 -9 -2 -12 -12z"/>
<path d="M5479 1848 c-9 -31 -6 -37 14 -27 32 17 35 22 8 14 -16 -5 -21 -4
-17 4 4 6 5 11 2 11 -3 0 -6 -1 -7 -2z"/>
<path d="M720 1830 c-9 -6 -10 -10 -3 -10 6 0 15 5 18 10 8 12 4 12 -15 0z"/>
<path d="M5593 1823 c0 -9 4 -10 14 -2 7 6 13 12 13 14 0 1 -6 2 -13 2 -8 0
-14 -6 -14 -14z"/>
<path d="M5550 1826 c0 -2 8 -10 18 -17 15 -13 16 -12 3 4 -13 16 -21 21 -21
13z"/>
<path d="M5533 1795 c0 -8 3 -13 5 -10 3 3 12 -1 21 -7 10 -8 9 -4 -3 10 -23
26 -23 26 -23 7z"/>
<path d="M5450 1790 c0 -5 5 -10 10 -10 6 0 10 5 10 10 0 6 -4 10 -10 10 -5 0
-10 -4 -10 -10z"/>
<path d="M5430 1784 c0 -6 7 -19 16 -30 14 -18 14 -18 3 6 -14 31 -19 36 -19
24z"/>
<path d="M5479 1778 c0 -2 -2 -13 -3 -26 -3 -21 -2 -21 16 -5 22 20 23 24 1
16 -11 -4 -14 -3 -9 5 4 7 5 12 2 12 -3 0 -6 -1 -7 -2z"/>
<path d="M5530 1767 c0 -2 6 -10 14 -16 11 -9 16 -9 22 1 4 7 4 10 -1 6 -4 -4
-14 -3 -22 3 -7 6 -13 9 -13 6z"/>
<path d="M5410 1750 c0 -5 5 -10 10 -10 6 0 10 5 10 10 0 6 -4 10 -10 10 -5 0
-10 -4 -10 -10z"/>
<path d="M5616 1732 c-3 -4 4 -9 15 -9 23 -2 25 3 4 10 -8 4 -16 3 -19 -1z"/>
<path d="M5490 1726 c0 -2 8 -10 18 -17 15 -13 16 -12 3 4 -13 16 -21 21 -21
13z"/>
<path d="M5473 1703 c0 -11 7 -20 14 -20 10 0 10 4 1 16 -7 9 -13 18 -15 20
-1 2 -1 -5 0 -16z"/>
<path d="M5586 1712 c-3 -5 1 -9 9 -9 8 0 12 4 9 9 -3 4 -7 8 -9 8 -2 0 -6 -4
-9 -8z"/>
<path d="M5342 1698 c-7 -7 -12 -17 -12 -22 0 -6 6 -4 13 5 7 9 19 18 27 22
13 5 13 6 0 6 -9 1 -21 -4 -28 -11z"/>
<path d="M5428 1703 c7 -3 16 -2 19 1 4 3 -2 6 -13 5 -11 0 -14 -3 -6 -6z"/>
<path d="M5390 1690 c0 -5 5 -10 10 -10 6 0 10 5 10 10 0 6 -4 10 -10 10 -5 0
-10 -4 -10 -10z"/>
<path d="M5270 1672 c0 -5 7 -9 15 -9 8 0 15 4 15 9 0 4 -7 8 -15 8 -8 0 -15
-4 -15 -8z"/>
<path d="M5354 1668 c-4 -7 -4 -10 1 -6 4 4 13 0 20 -9 9 -13 14 -13 20 -3 5
9 4 11 -3 6 -7 -4 -12 -1 -12 8 0 19 -16 21 -26 4z"/>
<path d="M5415 1670 c-6 -9 -4 -11 5 -5 10 6 12 4 7 -7 -6 -16 17 -20 28 -5 3
4 2 5 -2 2 -3 -3 -11 3 -18 12 -9 13 -14 13 -20 3z"/>
<path d="M5334 1646 c5 -14 2 -17 -9 -12 -8 3 -15 1 -15 -4 0 -14 27 -13 36 1
3 6 1 16 -6 22 -10 9 -12 8 -6 -7z"/>
<path d="M5554 1652 c4 -3 14 -7 22 -8 9 -1 13 0 10 4 -4 3 -14 7 -22 8 -9 1
-13 0 -10 -4z"/>
<path d="M5370 1620 c6 -11 13 -20 16 -20 2 0 0 9 -6 20 -6 11 -13 20 -16 20
-2 0 0 -9 6 -20z"/>
<path d="M5395 1631 c-3 -5 -2 -12 3 -15 5 -3 9 1 9 9 0 17 -3 19 -12 6z"/>
<path d="M5430 1620 c-9 -6 -10 -10 -3 -10 6 0 15 5 18 10 8 12 4 12 -15 0z"/>
<path d="M5353 1602 c0 -11 5 -18 9 -16 4 3 8 0 8 -7 0 -7 3 -10 6 -6 3 3 -1
16 -9 28 -16 22 -16 22 -14 1z"/>
<path d="M5530 1610 c0 -5 5 -10 11 -10 5 0 7 5 4 10 -3 6 -8 10 -11 10 -2 0
-4 -4 -4 -10z"/>
<path d="M5247 1585 c2 -7 0 -16 -6 -20 -6 -3 -11 -14 -11 -23 0 -10 7 -3 16
16 9 17 21 32 26 32 5 0 6 -4 3 -10 -3 -5 -1 -10 5 -10 21 0 4 25 -17 26 -13
1 -19 -4 -16 -11z"/>
<path d="M5315 1589 c-11 -16 -1 -19 13 -3 7 8 8 14 3 14 -5 0 -13 -5 -16 -11z"/>
<path d="M5413 1583 c0 -9 4 -10 14 -2 7 6 13 12 13 14 0 1 -6 2 -13 2 -8 0
-14 -6 -14 -14z"/>
<path d="M5334 1572 c3 -5 0 -13 -6 -15 -9 -4 -10 -6 -1 -6 17 -1 25 16 12 25
-7 4 -9 3 -5 -4z"/>
<path d="M5287 1546 c-4 -10 -1 -13 9 -9 15 6 19 23 5 23 -5 0 -11 -7 -14 -14z"/>
<path d="M5355 1550 c-3 -5 -1 -10 4 -10 6 0 11 5 11 10 0 6 -2 10 -4 10 -3 0
-8 -4 -11 -10z"/>
<path d="M5250 1532 c0 -5 -10 -14 -22 -19 -23 -11 -23 -11 4 -18 16 -4 26
-11 23 -15 -9 -14 16 -23 28 -11 9 9 7 10 -7 5 -14 -5 -17 -4 -12 5 5 8 1 14
-13 18 -20 5 -20 5 2 24 12 10 16 18 10 19 -7 0 -13 -4 -13 -8z"/>
<path d="M5270 1509 c0 -5 5 -7 10 -4 6 3 10 8 10 11 0 2 -4 4 -10 4 -5 0 -10
-5 -10 -11z"/>
<path d="M5316 1512 c-2 -4 0 -14 6 -22 8 -12 9 -12 5 2 -3 9 -1 19 6 22 9 3
9 5 0 5 -6 1 -14 -3 -17 -7z"/>
<path d="M5296 1487 c3 -10 9 -15 12 -12 3 3 0 11 -7 18 -10 9 -11 8 -5 -6z"/>
<path d="M5367 1489 c7 -7 15 -10 18 -7 3 3 -2 9 -12 12 -14 6 -15 5 -6 -5z"/>
<path d="M5450 1490 c0 -5 5 -10 11 -10 5 0 7 5 4 10 -3 6 -8 10 -11 10 -2 0
-4 -4 -4 -10z"/>
<path d="M5516 1468 c3 -5 10 -6 15 -3 13 9 11 12 -6 12 -8 0 -12 -4 -9 -9z"/>
<path d="M5316 1461 c-3 -5 1 -11 9 -14 9 -4 12 -1 8 9 -6 16 -10 17 -17 5z"/>
<path d="M5165 1450 c3 -5 8 -10 11 -10 2 0 4 5 4 10 0 6 -5 10 -11 10 -5 0
-7 -4 -4 -10z"/>
<path d="M5230 1435 c-7 -14 -15 -23 -18 -20 -7 7 -42 -14 -42 -25 0 -6 5 -10
11 -10 5 0 7 5 4 10 -3 6 -1 11 4 11 6 1 15 2 21 3 12 1 44 45 38 52 -3 2 -11
-7 -18 -21z"/>
<path d="M5434 1452 c4 -3 14 -7 22 -8 9 -1 13 0 10 4 -4 3 -14 7 -22 8 -9 1
-13 0 -10 -4z"/>
<path d="M5354 1436 c1 -8 5 -18 8 -22 4 -3 5 1 4 10 -1 8 -5 18 -8 22 -4 3
-5 -1 -4 -10z"/>
<path d="M5152 1426 c7 -8 15 -12 17 -11 5 6 -10 25 -20 25 -5 0 -4 -6 3 -14z"/>
<path d="M5260 1430 c0 -5 7 -7 15 -4 8 4 15 8 15 10 0 2 -7 4 -15 4 -8 0 -15
-4 -15 -10z"/>
<path d="M5236 1403 c-6 -14 -5 -15 5 -6 7 7 10 15 7 18 -3 3 -9 -2 -12 -12z"/>
<path d="M5334 1390 c0 -13 4 -16 10 -10 7 7 7 13 0 20 -6 6 -10 3 -10 -10z"/>
<path d="M5273 1386 c-3 -6 -3 -8 2 -4 4 4 13 3 20 -2 8 -7 12 -5 12 3 0 16
-25 18 -34 3z"/>
<path d="M5130 1365 c-11 -13 -15 -13 -21 -3 -6 8 -9 9 -9 2 0 -7 11 -19 25
-28 14 -9 25 -12 25 -7 0 5 -6 12 -12 14 -10 4 -9 8 2 16 8 5 12 13 9 16 -4 3
-12 -2 -19 -10z"/>
<path d="M5208 1373 c-10 -2 -18 -9 -18 -14 0 -6 8 -5 20 1 11 6 20 13 20 15
0 3 -1 4 -2 4 -2 -1 -11 -3 -20 -6z"/>
<path d="M5070 1360 c0 -17 -32 -48 -45 -43 -7 2 -15 0 -18 -4 -11 -17 37 -12
50 5 25 32 34 52 23 52 -5 0 -10 -4 -10 -10z"/>
<path d="M5161 1353 c-1 -25 14 -39 25 -22 4 7 3 9 -4 5 -6 -3 -12 3 -15 16
-4 23 -4 23 -6 1z"/>
<path d="M5237 1363 c-10 -9 -9 -23 1 -23 5 0 9 7 9 15 0 17 -1 18 -10 8z"/>
<path d="M5260 1366 c0 -2 7 -7 16 -10 8 -3 12 -2 9 4 -6 10 -25 14 -25 6z"/>
<path d="M5319 1343 c-13 -16 -12 -17 4 -4 9 7 17 15 17 17 0 8 -8 3 -21 -13z"/>
<path d="M5356 1352 c-3 -5 1 -9 9 -9 8 0 12 4 9 9 -3 4 -7 8 -9 8 -2 0 -6 -4
-9 -8z"/>
<path d="M5390 1356 c0 -2 7 -7 16 -10 8 -3 12 -2 9 4 -6 10 -25 14 -25 6z"/>
<path d="M5094 1326 c5 -14 2 -17 -9 -12 -9 3 -14 2 -10 -3 3 -5 -1 -12 -7
-14 -7 -3 -8 -6 -2 -6 5 -1 19 5 30 13 16 13 17 17 5 28 -12 11 -13 10 -7 -6z"/>
<path d="M5202 1328 c-7 -7 -12 -16 -12 -22 0 -5 3 -6 7 -3 3 4 11 2 18 -3 8
-7 12 -5 12 5 0 8 -5 11 -10 8 -6 -4 -8 0 -4 10 8 20 5 21 -11 5z"/>
<path d="M5276 1332 c-3 -5 1 -9 9 -9 8 0 12 4 9 9 -3 4 -7 8 -9 8 -2 0 -6 -4
-9 -8z"/>
<path d="M5130 1300 c6 -11 13 -20 16 -20 2 0 0 9 -6 20 -6 11 -13 20 -16 20
-2 0 0 -9 6 -20z"/>
<path d="M5345 1310 c-3 -6 1 -7 9 -4 18 7 21 14 7 14 -6 0 -13 -4 -16 -10z"/>
<path d="M5113 1270 c0 -23 3 -28 9 -16 5 9 5 23 0 32 -6 12 -9 7 -9 -16z"/>
<path d="M5164 1289 c-3 -6 -1 -16 5 -22 9 -9 10 -7 5 7 -6 15 -4 17 6 11 9
-5 11 -4 6 3 -9 15 -13 15 -22 1z"/>
<path d="M5010 1283 c0 -5 7 -16 15 -27 16 -21 37 -18 41 7 1 9 -2 15 -7 11
-5 -3 -9 0 -9 7 0 7 -3 9 -6 6 -4 -4 -1 -13 6 -22 7 -8 8 -15 2 -15 -14 0 -33
25 -25 33 3 4 1 7 -5 7 -7 0 -12 -3 -12 -7z"/>
<path d="M5229 1273 c-13 -16 -12 -17 4 -4 9 7 17 15 17 17 0 8 -8 3 -21 -13z"/>
<path d="M5080 1270 c0 -5 5 -10 10 -10 6 0 10 5 10 10 0 6 -4 10 -10 10 -5 0
-10 -4 -10 -10z"/>
<path d="M5189 1253 c-13 -16 -12 -17 4 -4 9 7 17 15 17 17 0 8 -8 3 -21 -13z"/>
<path d="M5150 1251 c0 -6 4 -13 10 -16 6 -3 7 1 4 9 -7 18 -14 21 -14 7z"/>
<path d="M5211 1237 c-8 -10 -7 -14 2 -14 8 0 14 6 14 14 0 7 -1 13 -2 13 -2
0 -8 -6 -14 -13z"/>
<path d="M1146 1228 c3 -5 10 -6 15 -3 13 9 11 12 -6 12 -8 0 -12 -4 -9 -9z"/>
<path d="M5060 1230 c-18 -12 -2 -12 25 0 13 6 15 9 5 9 -8 0 -22 -4 -30 -9z"/>
<path d="M4966 1204 c-4 -10 3 -19 22 -27 17 -8 26 -18 24 -29 -4 -21 10 -29
28 -16 12 8 11 9 -4 4 -15 -5 -17 -2 -13 15 4 16 0 23 -14 26 -16 5 -18 8 -7
15 8 6 5 7 -12 2 -22 -6 -23 -5 -11 10 7 9 9 16 3 16 -5 0 -13 -7 -16 -16z"/>
<path d="M5110 1210 c0 -5 5 -10 10 -10 6 0 10 5 10 10 0 6 -4 10 -10 10 -5 0
-10 -4 -10 -10z"/>
<path d="M5189 1207 c6 -8 7 -18 3 -22 -4 -5 -1 -5 6 -1 10 6 10 11 1 22 -6 8
-14 14 -16 14 -3 0 0 -6 6 -13z"/>
<path d="M5294 1206 c1 -8 5 -18 8 -22 4 -3 5 1 4 10 -1 8 -5 18 -8 22 -4 3
-5 -1 -4 -10z"/>
<path d="M5028 1203 c6 -2 9 -10 6 -15 -4 -7 -2 -8 4 -4 18 11 14 26 -5 25
-11 0 -13 -3 -5 -6z"/>
<path d="M5071 1192 c-1 -15 -5 -21 -13 -16 -7 5 -8 3 -3 -5 10 -18 28 2 22
25 -4 15 -5 14 -6 -4z"/>
<path d="M4946 1175 c9 -14 19 -24 21 -21 6 6 -20 46 -30 46 -4 0 0 -11 9 -25z"/>
<path d="M5119 1185 c-1 -3 -2 -8 -3 -12 -1 -5 -4 -13 -8 -19 -4 -6 -1 -11 5
-11 7 0 13 11 13 24 0 21 -4 31 -7 18z"/>
<path d="M5250 1170 c0 -5 5 -10 11 -10 5 0 7 5 4 10 -3 6 -8 10 -11 10 -2 0
-4 -4 -4 -10z"/>
<path d="M5068 1133 c7 -3 16 -2 19 1 4 3 -2 6 -13 5 -11 0 -14 -3 -6 -6z"/>
<path d="M5150 1128 c0 -4 4 -8 9 -8 6 0 12 4 15 8 3 5 -1 9 -9 9 -8 0 -15 -4
-15 -9z"/>
<path d="M5200 1130 c-12 -7 -10 -9 7 -7 12 0 19 5 17 9 -6 10 -6 10 -24 -2z"/>
<path d="M1335 1119 c-4 -6 -5 -12 -2 -15 2 -3 7 2 10 11 7 17 1 20 -8 4z"/>
<path d="M5095 1120 c-4 -6 -12 -7 -18 -4 -7 4 -9 4 -5 -1 4 -4 2 -15 -4 -24
-10 -12 -7 -12 8 2 11 9 23 15 26 12 2 -3 5 2 5 10 0 18 -3 19 -12 5z"/>
<path d="M4939 1098 c-6 -21 -5 -37 2 -32 5 3 6 10 3 16 -5 7 -1 9 9 5 10 -3
17 -2 17 3 0 8 -28 15 -31 8z"/>
<path d="M4910 1081 c0 -7 -4 -9 -10 -6 -6 3 -7 -1 -4 -10 5 -11 2 -14 -10 -9
-9 3 -16 4 -16 1 0 -3 7 -7 15 -11 15 -5 42 30 31 42 -3 3 -6 0 -6 -7z"/>
<path d="M1395 1070 c3 -5 8 -10 11 -10 2 0 4 5 4 10 0 6 -5 10 -11 10 -5 0
-7 -4 -4 -10z"/>
<path d="M4974 1068 c-5 -7 -3 -8 6 -3 9 6 12 4 8 -6 -4 -10 1 -15 13 -15 17
0 17 2 2 18 -19 21 -20 21 -29 6z"/>
<path d="M5119 1063 c-13 -16 -12 -17 4 -4 16 13 21 21 13 21 -2 0 -10 -8 -17
-17z"/>
<path d="M4761 1019 c-26 -26 -47 -39 -57 -35 -8 3 -12 2 -9 -4 11 -18 29 -11
67 25 31 29 38 32 48 20 10 -12 9 -15 -4 -15 -9 0 -16 -5 -16 -10 0 -7 6 -7
20 0 19 10 18 40 -2 40 -5 0 -6 5 -3 10 12 20 -3 9 -44 -31z"/>
<path d="M4950 1053 c0 -6 8 -17 18 -24 16 -13 16 -13 2 6 -8 11 -16 22 -17
24 -2 2 -3 0 -3 -6z"/>
<path d="M5040 1050 c-9 -6 -10 -10 -3 -10 6 0 15 5 18 10 8 12 4 12 -15 0z"/>
<path d="M5173 1045 c0 -8 4 -12 9 -9 5 3 6 10 3 15 -9 13 -12 11 -12 -6z"/>
<path d="M4930 1041 c0 -6 4 -13 10 -16 6 -3 7 1 4 9 -7 18 -14 21 -14 7z"/>
<path d="M4850 1030 c-8 -5 -10 -10 -5 -10 6 0 17 5 25 10 8 5 11 10 5 10 -5
0 -17 -5 -25 -10z"/>
<path d="M4906 1031 c-3 -5 1 -11 9 -14 9 -4 12 -1 8 9 -6 16 -10 17 -17 5z"/>
<path d="M5230 1030 c0 -5 5 -10 11 -10 5 0 7 5 4 10 -3 6 -8 10 -11 10 -2 0
-4 -4 -4 -10z"/>
<path d="M1415 1010 c-3 -5 -1 -10 4 -10 6 0 11 5 11 10 0 6 -2 10 -4 10 -3 0
-8 -4 -11 -10z"/>
<path d="M4870 1010 c0 -5 5 -10 10 -10 6 0 10 5 10 10 0 6 -4 10 -10 10 -5 0
-10 -4 -10 -10z"/>
<path d="M5014 990 c0 -13 4 -16 10 -10 7 7 7 13 0 20 -6 6 -10 3 -10 -10z"/>
<path d="M4770 988 c0 -9 5 -20 10 -23 13 -8 13 5 0 25 -8 13 -10 13 -10 -2z"/>
<path d="M4820 990 c-18 -12 -2 -12 25 0 13 6 15 9 5 9 -8 0 -22 -4 -30 -9z"/>
<path d="M4912 989 c-12 -5 -22 -11 -22 -13 0 -3 11 -1 24 4 13 5 26 6 29 4 3
-3 7 -1 11 4 6 11 -14 11 -42 1z"/>
<path d="M4673 955 c0 -14 4 -25 9 -25 5 0 6 -6 2 -12 -5 -9 -2 -9 9 1 9 7 16
21 16 30 -1 13 -2 13 -6 -2 -2 -9 -8 -15 -13 -12 -5 3 -7 12 -4 19 3 8 1 17
-4 20 -5 3 -9 -6 -9 -19z"/>
<path d="M4751 975 c1 -19 18 -51 18 -35 0 8 -4 22 -9 30 -5 8 -9 11 -9 5z"/>
<path d="M4870 973 c0 -5 10 -18 23 -29 l22 -19 -20 25 c-11 14 -21 27 -22 29
-2 2 -3 0 -3 -6z"/>
<path d="M1396 957 c3 -10 9 -15 12 -12 3 3 0 11 -7 18 -10 9 -11 8 -5 -6z"/>
<path d="M4800 955 c0 -8 4 -15 10 -15 5 0 7 7 4 15 -4 8 -8 15 -10 15 -2 0
-4 -7 -4 -15z"/>
<path d="M4833 951 c0 -11 5 -18 9 -15 4 3 5 11 1 19 -7 21 -12 19 -10 -4z"/>
<path d="M4720 951 c0 -5 7 -14 15 -21 10 -9 15 -9 15 -1 0 6 -5 11 -11 11 -5
0 -7 5 -4 10 3 6 1 10 -4 10 -6 0 -11 -4 -11 -9z"/>
<path d="M1496 932 c-3 -5 1 -9 9 -9 8 0 12 4 9 9 -3 4 -7 8 -9 8 -2 0 -6 -4
-9 -8z"/>
<path d="M1555 930 c3 -5 8 -10 11 -10 2 0 4 5 4 10 0 6 -5 10 -11 10 -5 0 -7
-4 -4 -10z"/>
<path d="M4860 913 c14 -22 30 -22 30 -1 0 6 -3 8 -7 5 -3 -4 -13 -1 -21 6
-13 11 -14 9 -2 -10z"/>
<path d="M4710 908 c0 -6 3 -8 7 -5 3 4 12 -1 20 -11 13 -15 13 -15 3 6 -11
23 -30 30 -30 10z"/>
<path d="M4828 903 c-4 -13 0 -19 13 -19 14 0 16 3 6 16 -6 8 -12 16 -13 18
-1 1 -4 -5 -6 -15z"/>
<path d="M1573 895 c0 -8 4 -12 9 -9 5 3 6 10 3 15 -9 13 -12 11 -12 -6z"/>
<path d="M4757 899 c7 -7 15 -10 18 -7 3 3 -2 9 -12 12 -14 6 -15 5 -6 -5z"/>
<path d="M1533 885 c0 -8 4 -12 9 -9 5 3 6 10 3 15 -9 13 -12 11 -12 -6z"/>
<path d="M4975 890 c-3 -5 -1 -10 4 -10 6 0 11 5 11 10 0 6 -2 10 -4 10 -3 0
-8 -4 -11 -10z"/>
<path d="M1570 849 c0 -5 5 -7 10 -4 6 3 10 8 10 11 0 2 -4 4 -10 4 -5 0 -10
-5 -10 -11z"/>
<path d="M1665 850 c-3 -6 1 -7 9 -4 18 7 21 14 7 14 -6 0 -13 -4 -16 -10z"/>
<path d="M1700 856 c0 -2 8 -10 18 -17 15 -13 16 -12 3 4 -13 16 -21 21 -21
13z"/>
<path d="M4710 850 c0 -5 8 -14 18 -19 14 -7 19 -6 19 4 0 7 -7 11 -15 7 -10
-3 -13 -1 -8 6 4 7 2 12 -3 12 -6 0 -11 -4 -11 -10z"/>
<path d="M4796 848 c3 -5 10 -6 15 -3 13 9 11 12 -6 12 -8 0 -12 -4 -9 -9z"/>
<path d="M4866 848 c3 -5 10 -6 15 -3 13 9 11 12 -6 12 -8 0 -12 -4 -9 -9z"/>
<path d="M4315 840 c-3 -5 -1 -10 4 -10 6 0 11 5 11 10 0 6 -2 10 -4 10 -3 0
-8 -4 -11 -10z"/>
<path d="M4530 843 c5 -2 8 -9 4 -14 -3 -5 0 -9 6 -9 15 0 7 23 -8 26 -7 1 -8
0 -2 -3z"/>
<path d="M4782 834 c10 -10 20 -16 22 -13 3 3 -5 11 -17 18 -21 13 -21 12 -5
-5z"/>
<path d="M4576 824 c-3 -9 -2 -23 2 -31 7 -11 9 -6 10 16 1 34 -3 39 -12 15z"/>
<path d="M4833 821 c0 -11 5 -18 9 -15 4 3 5 11 1 19 -7 21 -12 19 -10 -4z"/>
<path d="M4670 820 c0 -5 5 -10 11 -10 5 0 7 5 4 10 -3 6 -8 10 -11 10 -2 0
-4 -4 -4 -10z"/>
<path d="M4394 795 c0 -14 4 -25 9 -25 10 0 9 38 -2 44 -5 3 -8 -5 -7 -19z"/>
<path d="M1795 799 c-11 -16 -1 -19 13 -3 7 8 8 14 3 14 -5 0 -13 -5 -16 -11z"/>
<path d="M4494 798 c3 -17 28 -17 34 0 2 6 -1 12 -8 12 -6 0 -8 -4 -5 -10 3
-5 2 -10 -4 -10 -5 0 -12 5 -14 10 -3 6 -4 5 -3 -2z"/>
<path d="M4543 791 c-7 -11 -9 -22 -6 -25 10 -10 33 -7 33 4 0 5 -8 6 -17 3
-16 -6 -16 -5 -4 10 8 10 12 19 10 22 -3 2 -10 -4 -16 -14z"/>
<path d="M4628 793 c7 -3 16 -2 19 1 4 3 -2 6 -13 5 -11 0 -14 -3 -6 -6z"/>
<path d="M1655 781 c-3 -5 -2 -12 3 -15 5 -3 9 1 9 9 0 17 -3 19 -12 6z"/>
<path d="M1735 781 c-3 -5 -2 -12 3 -15 5 -3 9 1 9 9 0 17 -3 19 -12 6z"/>
<path d="M4470 770 c0 -5 5 -10 10 -10 6 0 10 5 10 10 0 6 -4 10 -10 10 -5 0
-10 -4 -10 -10z"/>
<path d="M4668 773 c6 -3 10 -9 6 -14 -8 -14 2 -11 14 4 8 10 6 13 -11 14 -12
0 -16 -1 -9 -4z"/>
<path d="M4417 763 c-10 -10 -8 -23 4 -23 5 0 7 5 3 12 -5 8 -2 9 10 5 10 -4
20 -7 22 -7 2 0 4 -5 4 -11 0 -5 -4 -8 -9 -5 -5 3 -16 -5 -25 -19 -15 -23 -15
-25 2 -34 14 -7 19 -6 19 4 0 7 -7 11 -15 8 -12 -5 -12 -3 -1 15 7 11 16 19
20 16 17 -10 20 20 4 33 -21 15 -29 16 -38 6z"/>
<path d="M1770 749 c0 -5 5 -7 10 -4 6 3 10 8 10 11 0 2 -4 4 -10 4 -5 0 -10
-5 -10 -11z"/>
<path d="M1816 743 c-6 -14 -5 -15 5 -6 7 7 10 15 7 18 -3 3 -9 -2 -12 -12z"/>
<path d="M4500 756 c0 -2 7 -6 15 -10 8 -3 15 -1 15 4 0 6 -7 10 -15 10 -8 0
-15 -2 -15 -4z"/>
<path d="M4699 743 c-13 -17 -13 -17 6 -3 11 8 22 16 24 17 2 2 0 3 -6 3 -6 0
-17 -8 -24 -17z"/>
<path d="M1896 742 c-2 -4 4 -8 14 -8 10 0 16 4 14 8 -3 4 -9 8 -14 8 -5 0
-11 -4 -14 -8z"/>
<path d="M4596 741 c-3 -5 1 -11 9 -14 9 -4 12 -1 8 9 -6 16 -10 17 -17 5z"/>
<path d="M1735 730 c3 -5 8 -10 11 -10 2 0 4 5 4 10 0 6 -5 10 -11 10 -5 0 -7
-4 -4 -10z"/>
<path d="M4493 725 c-3 -9 -3 -19 1 -22 3 -4 6 1 6 11 0 10 5 14 12 10 7 -4 8
-3 4 4 -10 16 -15 15 -23 -3z"/>
<path d="M4290 715 c0 -8 2 -15 4 -15 2 0 6 7 10 15 3 8 1 15 -4 15 -6 0 -10
-7 -10 -15z"/>
<path d="M1870 711 c0 -6 4 -13 10 -16 6 -3 7 1 4 9 -7 18 -14 21 -14 7z"/>
<path d="M1911 717 c2 -2 11 -8 20 -15 12 -9 16 -9 16 1 0 7 -9 14 -20 14 -11
1 -18 1 -16 0z"/>
<path d="M1987 689 c7 -7 15 -10 18 -7 3 3 -2 9 -12 12 -14 6 -15 5 -6 -5z"/>
<path d="M4217 679 c-10 -11 -21 -18 -25 -14 -3 3 0 11 8 16 12 9 12 10 -3 5
-10 -3 -21 -6 -23 -6 -12 0 -1 -17 19 -29 12 -7 19 -10 15 -6 -8 8 24 44 35
38 4 -2 7 -11 7 -19 0 -8 -3 -13 -7 -11 -5 2 -16 -4 -25 -15 -23 -23 -10 -23
21 1 17 13 22 23 16 39 -8 27 -16 28 -38 1z"/>
<path d="M4580 695 c0 -2 6 -8 13 -14 10 -8 14 -7 14 2 0 8 -6 14 -14 14 -7 0
-13 -1 -13 -2z"/>
<path d="M1833 677 c0 -8 6 -14 14 -14 9 0 10 4 2 14 -6 7 -12 13 -14 13 -1 0
-2 -6 -2 -13z"/>
<path d="M2054 675 c1 -8 6 -18 11 -22 4 -4 5 -3 2 4 -4 6 -2 13 5 15 8 3 6 6
-4 10 -10 4 -15 2 -14 -7z"/>
<path d="M4351 674 c0 -11 3 -14 6 -6 3 7 2 16 -1 19 -3 4 -6 -2 -5 -13z"/>
<path d="M1915 671 c-3 -5 -2 -12 3 -15 5 -3 9 1 9 9 0 17 -3 19 -12 6z"/>
<path d="M1967 669 c7 -7 15 -10 18 -7 3 3 -2 9 -12 12 -14 6 -15 5 -6 -5z"/>
<path d="M2019 663 c-13 -16 -12 -17 4 -4 16 13 21 21 13 21 -2 0 -10 -8 -17
-17z"/>
<path d="M4395 671 c-6 -11 13 -26 22 -17 4 3 1 6 -6 6 -7 0 -9 5 -6 10 3 6 4
10 1 10 -3 0 -7 -4 -11 -9z"/>
<path d="M4514 673 c3 -3 19 -7 36 -8 17 -1 28 0 25 3 -3 3 -19 7 -36 8 -17 2
-28 0 -25 -3z"/>
<path d="M4370 661 c0 -6 4 -13 10 -16 6 -3 7 1 4 9 -7 18 -14 21 -14 7z"/>
<path d="M4060 652 c0 -7 6 -12 13 -12 6 0 -5 -17 -26 -36 -21 -20 -37 -38
-35 -40 3 -2 22 12 43 32 36 33 37 36 22 52 -11 10 -17 12 -17 4z"/>
<path d="M4299 657 c-6 -20 -5 -37 3 -37 6 0 8 6 5 14 -4 10 0 14 13 13 11 -1
22 -7 24 -14 6 -16 26 -17 26 -2 0 5 -4 8 -9 5 -5 -4 -11 -1 -13 6 -3 9 -46
23 -49 15z"/>
<path d="M4470 651 c0 -5 8 -15 18 -22 15 -12 16 -12 5 2 -7 9 -10 19 -6 22 3
4 1 7 -5 7 -7 0 -12 -4 -12 -9z"/>
<path d="M4674 652 c4 -3 14 -7 22 -8 9 -1 13 0 10 4 -4 3 -14 7 -22 8 -9 1
-13 0 -10 -4z"/>
<path d="M4536 637 c3 -10 9 -15 12 -12 3 3 0 11 -7 18 -10 9 -11 8 -5 -6z"/>
<path d="M4575 639 c-4 -6 -5 -12 -2 -15 2 -3 7 2 10 11 7 17 1 20 -8 4z"/>
<path d="M2087 630 c7 -8 63 -8 63 0 0 4 -15 6 -34 6 -19 -1 -32 -3 -29 -6z"/>
<path d="M2171 637 c2 -1 13 -9 24 -17 19 -14 19 -14 6 3 -7 9 -18 17 -24 17
-6 0 -8 -1 -6 -3z"/>
<path d="M4254 629 c-3 -6 -2 -15 4 -21 6 -6 12 -6 17 3 5 8 4 10 -3 5 -7 -4
-12 -3 -12 3 0 5 6 12 13 14 9 4 9 6 0 6 -6 1 -15 -4 -19 -10z"/>
<path d="M4410 631 c0 -6 4 -12 8 -15 5 -3 9 1 9 9 0 8 -4 15 -9 15 -4 0 -8
-4 -8 -9z"/>
<path d="M1836 603 c-6 -14 -5 -15 5 -6 7 7 10 15 7 18 -3 3 -9 -2 -12 -12z"/>
<path d="M1935 610 c-3 -5 -1 -10 4 -10 6 0 11 5 11 10 0 6 -2 10 -4 10 -3 0
-8 -4 -11 -10z"/>
<path d="M2165 612 c-5 -4 -11 -14 -13 -22 -2 -8 0 -12 4 -8 4 4 14 2 23 -4
13 -10 14 -10 4 2 -16 18 -17 34 -1 24 7 -4 8 -3 4 4 -8 14 -8 14 -21 4z"/>
<path d="M4081 600 c-29 -25 -19 -26 16 -3 26 17 27 17 20 0 -4 -10 -3 -16 2
-13 5 3 12 -1 15 -10 3 -8 10 -12 16 -9 13 8 13 -1 -1 -28 -10 -21 -10 -21 6
-2 17 21 14 42 -5 37 -8 -2 -10 3 -6 13 3 9 2 14 -3 11 -5 -3 -11 1 -15 9 -7
20 -16 19 -45 -5z"/>
<path d="M4233 602 c0 -11 5 -18 9 -16 4 3 8 0 8 -7 0 -7 3 -10 6 -6 3 3 -1
16 -9 28 -16 22 -16 22 -14 1z"/>
<path d="M3990 600 c0 -5 5 -10 10 -10 6 0 10 5 10 10 0 6 -4 10 -10 10 -5 0
-10 -4 -10 -10z"/>
<path d="M2205 590 c-3 -6 1 -7 9 -4 18 7 21 14 7 14 -6 0 -13 -4 -16 -10z"/>
<path d="M2305 589 c-4 -6 -5 -12 -2 -15 2 -3 7 2 10 11 7 17 1 20 -8 4z"/>
<path d="M4180 590 c-18 -12 -2 -12 25 0 13 6 15 9 5 9 -8 0 -22 -4 -30 -9z"/>
<path d="M4275 590 c-3 -5 -1 -10 4 -10 6 0 11 5 11 10 0 6 -2 10 -4 10 -3 0
-8 -4 -11 -10z"/>
<path d="M4321 582 c-7 -13 -6 -19 2 -19 7 0 13 9 13 19 0 10 -1 18 -3 18 -1
0 -7 -8 -12 -18z"/>
<path d="M4386 588 c3 -5 10 -6 15 -3 13 9 11 12 -6 12 -8 0 -12 -4 -9 -9z"/>
<path d="M2073 575 c0 -8 4 -15 9 -15 4 0 8 4 8 9 0 6 -4 12 -8 15 -5 3 -9 -1
-9 -9z"/>
<path d="M2275 581 c-3 -5 -2 -12 3 -15 5 -3 9 1 9 9 0 17 -3 19 -12 6z"/>
<path d="M3970 587 c0 -5 9 -20 20 -34 11 -14 20 -22 20 -17 -1 12 -39 61 -40
51z"/>
<path d="M4353 577 c0 -8 6 -14 14 -14 9 0 10 4 2 14 -6 7 -12 13 -14 13 -1 0
-2 -6 -2 -13z"/>
<path d="M1976 568 c3 -5 10 -6 15 -3 13 9 11 12 -6 12 -8 0 -12 -4 -9 -9z"/>
<path d="M2010 569 c0 -5 5 -7 10 -4 6 3 10 8 10 11 0 2 -4 4 -10 4 -5 0 -10
-5 -10 -11z"/>
<path d="M2238 573 c7 -3 16 -2 19 1 4 3 -2 6 -13 5 -11 0 -14 -3 -6 -6z"/>
<path d="M2307 554 c-13 -18 -14 -22 -3 -18 8 3 17 13 20 21 10 25 3 23 -17
-3z"/>
<path d="M4080 569 c-12 -9 -12 -10 3 -5 15 5 17 2 12 -17 -5 -20 -5 -20 6 -4
14 23 0 40 -21 26z"/>
<path d="M4400 570 c-9 -6 -10 -10 -3 -10 6 0 15 5 18 10 8 12 4 12 -15 0z"/>
<path d="M2134 556 c1 -8 5 -18 8 -22 4 -3 5 1 4 10 -1 8 -5 18 -8 22 -4 3 -5
-1 -4 -10z"/>
<path d="M2357 551 c-4 -17 -3 -21 5 -13 5 5 8 16 6 23 -3 8 -7 3 -11 -10z"/>
<path d="M3890 559 c0 -5 -6 -7 -12 -3 -10 6 -10 5 -1 -7 10 -12 10 -18 1 -27
-17 -17 -33 -15 -18 3 9 10 9 15 1 15 -6 0 -11 -5 -11 -11 0 -5 -4 -8 -8 -5
-15 9 -35 -12 -29 -29 4 -9 12 -13 18 -9 8 4 9 -1 5 -17 -6 -20 -5 -21 4 -6
12 19 4 41 -11 32 -5 -4 -9 -2 -9 3 0 17 13 22 27 11 10 -9 18 -8 33 6 19 18
20 17 20 -3 0 -12 -5 -21 -12 -19 -6 1 -14 -6 -16 -15 -2 -10 1 -18 7 -18 6 0
7 7 4 17 -4 11 -3 14 5 9 17 -10 27 23 14 44 -8 13 -7 21 1 29 8 8 8 11 -1 11
-7 0 -12 -5 -12 -11z"/>
<path d="M4202 557 c10 -8 14 -18 10 -22 -4 -4 2 -3 14 3 15 8 25 8 35 -1 7
-7 5 -2 -5 11 -19 22 -32 30 -21 12 8 -13 -1 -13 -28 1 -20 9 -20 9 -5 -4z"/>
<path d="M2226 549 c4 -8 30 -6 38 2 3 3 -5 5 -19 5 -13 0 -22 -3 -19 -7z"/>
<path d="M3917 554 c-3 -3 -3 -13 0 -21 5 -12 7 -12 14 -1 15 23 4 40 -14 22z"/>
<path d="M3966 544 c17 -14 17 -15 1 -10 -10 3 -16 2 -12 -3 3 -5 0 -11 -7
-13 -7 -3 -5 -7 6 -11 9 -4 15 -3 12 2 -3 5 1 12 10 15 13 5 14 9 4 21 -7 8
-17 15 -23 15 -6 0 -2 -7 9 -16z"/>
<path d="M4031 544 c0 -11 3 -14 6 -6 3 7 2 16 -1 19 -3 4 -6 -2 -5 -13z"/>
<path d="M4470 551 c0 -6 4 -13 10 -16 6 -3 7 1 4 9 -7 18 -14 21 -14 7z"/>
<path d="M2390 536 c0 -2 9 -6 20 -9 11 -3 18 -1 14 4 -5 9 -34 13 -34 5z"/>
<path d="M2559 533 c0 -5 -3 -19 -5 -32 -2 -14 -2 -22 1 -19 8 8 17 58 10 58
-3 0 -5 -3 -6 -7z"/>
<path d="M3493 526 c-3 -6 -3 -8 2 -4 4 4 14 0 21 -10 11 -14 15 -15 26 -3 11
12 10 13 -6 7 -13 -4 -17 -2 -13 7 6 16 -21 19 -30 3z"/>
<path d="M4054 532 c3 -5 0 -13 -6 -15 -9 -4 -10 -6 -1 -6 17 -1 25 16 12 25
-7 4 -9 3 -5 -4z"/>
<path d="M4110 531 c0 -6 4 -13 10 -16 6 -3 7 1 4 9 -7 18 -14 21 -14 7z"/>
<path d="M4190 535 c0 -5 5 -17 10 -25 5 -8 10 -10 10 -5 0 6 -5 17 -10 25 -5
8 -10 11 -10 5z"/>
<path d="M2373 515 c0 -7 8 -10 19 -7 10 2 18 6 18 7 0 1 -8 5 -18 7 -11 3
-19 0 -19 -7z"/>
<path d="M3736 522 c-3 -5 4 -8 16 -8 12 1 23 -6 26 -14 5 -13 3 -13 -14 0
-17 14 -18 13 -7 -1 8 -9 9 -19 3 -25 -6 -6 -5 -15 1 -24 9 -13 10 -12 6 2 -3
9 1 22 9 28 19 16 18 36 -2 44 -21 8 -32 8 -38 -2z"/>
<path d="M4293 515 c0 -8 3 -13 5 -10 3 3 12 -1 21 -7 10 -8 9 -4 -3 10 -23
26 -23 26 -23 7z"/>
<path d="M2274 504 c1 -8 4 -15 7 -16 2 -2 3 -1 2 1 -2 2 2 9 7 16 7 8 5 12
-4 12 -8 0 -13 -6 -12 -13z"/>
<path d="M2475 510 c-3 -5 -1 -10 4 -10 6 0 11 5 11 10 0 6 -2 10 -4 10 -3 0
-8 -4 -11 -10z"/>
<path d="M2580 515 c0 -8 29 -12 39 -5 9 5 4 8 -13 8 -14 0 -26 -2 -26 -3z"/>
<path d="M3405 507 c-24 -27 -28 -41 -6 -23 21 19 22 19 39 2 16 -17 16 -18
-5 -12 -12 4 -24 3 -27 -2 -3 -5 12 -9 33 -9 l37 0 -28 29 c-31 32 -29 31 -43
15z"/>
<path d="M3996 509 c2 -4 -1 -9 -8 -11 -6 -2 -12 -12 -14 -22 -1 -10 0 -16 3
-13 2 3 4 9 3 12 -1 4 11 16 26 26 25 16 26 18 7 16 -12 0 -20 -4 -17 -8z"/>
<path d="M4075 510 c-3 -5 -1 -10 4 -10 6 0 11 5 11 10 0 6 -2 10 -4 10 -3 0
-8 -4 -11 -10z"/>
<path d="M2175 501 c-3 -5 -2 -12 3 -15 5 -3 9 1 9 9 0 17 -3 19 -12 6z"/>
<path d="M3297 499 c7 -7 15 -10 18 -7 3 3 -2 9 -12 12 -14 6 -15 5 -6 -5z"/>
<path d="M2115 489 c-3 -4 2 -6 10 -5 21 3 28 13 10 13 -9 0 -18 -4 -20 -8z"/>
<path d="M2236 492 c-3 -5 1 -9 9 -9 8 0 12 4 9 9 -3 4 -7 8 -9 8 -2 0 -6 -4
-9 -8z"/>
<path d="M2495 489 c-5 -8 -4 -10 3 -5 7 4 13 2 13 -3 3 -26 4 -30 11 -37 4
-3 5 4 3 16 -6 31 -21 45 -30 29z"/>
<path d="M2574 485 c-3 -8 -4 -20 -1 -27 3 -7 6 -3 6 10 1 15 5 21 13 16 7 -4
8 -3 4 4 -10 16 -15 15 -22 -3z"/>
<path d="M2616 492 c-2 -4 2 -16 10 -27 8 -10 14 -14 14 -9 0 6 -5 15 -11 21
-9 9 -7 12 10 10 13 -1 20 -6 16 -15 -3 -7 0 -10 6 -7 5 4 8 12 6 18 -4 12
-44 20 -51 9z"/>
<path d="M2826 481 c10 -10 21 -17 23 -15 6 6 -20 34 -32 34 -6 0 -2 -8 9 -19z"/>
<path d="M2850 496 c0 -4 11 -11 25 -16 31 -12 33 -27 4 -26 -16 1 -23 -6 -25
-24 -3 -18 -2 -21 5 -10 5 8 7 18 4 23 -3 5 5 7 18 5 18 -2 24 2 25 18 1 11
-4 21 -10 21 -6 0 -19 4 -28 8 -10 4 -18 4 -18 1z"/>
<path d="M3181 486 c-16 -19 3 -31 26 -16 15 9 14 10 -7 4 -22 -6 -23 -5 -11
10 7 9 11 16 8 16 -2 0 -10 -6 -16 -14z"/>
<path d="M3247 484 c5 -12 3 -15 -6 -9 -7 4 -5 -5 5 -21 18 -26 18 -28 1 -21
-9 3 -17 2 -17 -3 0 -14 27 -13 36 1 3 6 2 15 -4 21 -6 6 -8 16 -6 23 3 7 1
16 -5 20 -7 4 -8 0 -4 -11z"/>
<path d="M3274 478 c8 -42 26 -79 35 -73 5 3 12 -2 14 -10 3 -11 4 -10 3 2 -1
10 -7 17 -13 16 -11 -2 -28 42 -24 64 1 6 -3 14 -9 18 -7 4 -9 -2 -6 -17z"/>
<path d="M3620 490 c0 -5 7 -7 15 -4 8 4 15 8 15 10 0 2 -7 4 -15 4 -8 0 -15
-4 -15 -10z"/>
<path d="M3720 490 c20 -13 33 -13 25 0 -3 6 -14 10 -23 10 -15 0 -15 -2 -2
-10z"/>
<path d="M3933 485 c-3 -9 -3 -18 -1 -21 3 -3 8 4 11 16 6 23 -1 27 -10 5z"/>
<path d="M4014 489 c-4 -7 -3 -9 4 -5 5 3 13 0 15 -6 4 -9 6 -10 6 -1 1 17
-16 25 -25 12z"/>
<path d="M4117 487 c4 -7 -1 -8 -13 -3 -15 6 -17 5 -6 -5 10 -11 15 -10 28 2
13 14 13 16 0 16 -8 0 -12 -5 -9 -10z"/>
<path d="M3067 475 c-4 -8 -1 -17 5 -21 7 -4 5 -10 -6 -16 -9 -5 -16 -14 -16
-19 0 -6 7 -3 16 5 8 9 21 16 27 16 7 0 4 5 -5 11 -10 5 -15 16 -12 24 4 8 4
15 1 15 -3 0 -7 -7 -10 -15z"/>
<path d="M3093 475 c0 -8 4 -12 9 -9 4 3 8 0 8 -7 0 -7 2 -10 5 -7 7 7 -5 38
-14 38 -4 0 -8 -7 -8 -15z"/>
<path d="M3510 480 c-10 -6 -11 -10 -2 -10 6 0 12 -4 12 -10 0 -5 -8 -7 -17
-3 -14 5 -15 3 -6 -7 15 -16 32 -5 30 20 -1 11 -1 20 -2 20 0 0 -7 -5 -15 -10z"/>
<path d="M2440 470 c-9 -6 -10 -10 -3 -10 6 0 15 5 18 10 8 12 4 12 -15 0z"/>
<path d="M2715 470 c27 -12 43 -12 25 0 -8 5 -22 9 -30 9 -10 0 -8 -3 5 -9z"/>
<path d="M2770 470 c0 -5 5 -10 10 -10 6 0 10 5 10 10 0 6 -4 10 -10 10 -5 0
-10 -4 -10 -10z"/>
<path d="M2807 469 c7 -7 15 -10 18 -7 3 3 -2 9 -12 12 -14 6 -15 5 -6 -5z"/>
<path d="M3145 470 c3 -5 1 -10 -4 -10 -6 0 -11 -5 -11 -11 0 -8 4 -8 14 0 14
12 25 2 38 -34 1 -5 11 -9 21 -8 12 2 16 -1 11 -9 -4 -7 -3 -8 5 -4 18 12 1
27 -22 20 -12 -3 -19 -3 -15 1 8 9 -22 65 -35 65 -4 0 -5 -4 -2 -10z"/>
<path d="M3300 467 c0 -5 7 -7 15 -4 8 4 17 2 20 -3 3 -5 -3 -11 -12 -13 -15
-4 -15 -5 -2 -6 9 0 23 7 30 16 10 11 10 14 2 9 -7 -4 -13 -3 -13 3 0 5 -9 9
-20 8 -11 -1 -20 -5 -20 -10z"/>
<path d="M3630 469 c-13 -9 -13 -10 2 -6 25 9 31 -6 7 -18 -19 -11 -19 -13 -5
-18 10 -4 15 -3 12 2 -3 5 1 11 9 15 8 3 12 12 9 21 -7 18 -14 19 -34 4z"/>
<path d="M3710 459 c7 -11 14 -18 18 -15 3 3 14 -6 24 -21 10 -16 18 -24 18
-20 0 16 -32 57 -41 51 -5 -3 -9 2 -9 10 0 9 -5 16 -10 16 -7 0 -7 -7 0 -21z"/>
<path d="M3786 471 c-3 -5 0 -11 7 -14 8 -3 14 1 14 9 0 16 -13 19 -21 5z"/>
<path d="M3947 461 c-4 -17 -3 -21 5 -13 5 5 8 16 6 23 -3 8 -7 3 -11 -10z"/>
<path d="M4053 465 c0 -8 4 -12 9 -9 5 3 6 10 3 15 -9 13 -12 11 -12 -6z"/>
<path d="M4196 463 c-6 -14 -5 -15 5 -6 7 7 10 15 7 18 -3 3 -9 -2 -12 -12z"/>
<path d="M2675 459 c-4 -6 -5 -12 -2 -15 2 -3 7 2 10 11 7 17 1 20 -8 4z"/>
<path d="M3577 463 c-4 -3 -7 -11 -7 -17 0 -6 5 -5 12 2 6 6 9 14 7 17 -3 3
-9 2 -12 -2z"/>
<path d="M2154 452 c4 -3 14 -7 22 -8 9 -1 13 0 10 4 -4 3 -14 7 -22 8 -9 1
-13 0 -10 -4z"/>
<path d="M2390 456 c0 -2 7 -7 16 -10 8 -3 12 -2 9 4 -6 10 -25 14 -25 6z"/>
<path d="M2695 449 c-4 -6 -5 -12 -2 -15 2 -3 7 2 10 11 7 17 1 20 -8 4z"/>
<path d="M2955 450 c3 -6 1 -10 -6 -10 -7 0 -10 -3 -6 -6 3 -3 13 -2 22 4 16
8 16 9 1 15 -10 4 -15 3 -11 -3z"/>
<path d="M3014 446 c4 -13 2 -17 -7 -13 -8 3 -20 2 -26 -3 -9 -5 -4 -7 13 -7
31 0 43 14 26 30 -10 9 -12 8 -6 -7z"/>
<path d="M3200 450 c-13 -8 -13 -10 2 -10 9 0 20 5 23 10 8 13 -5 13 -25 0z"/>
<path d="M3381 444 c12 -15 11 -16 -6 -11 -11 4 -26 3 -34 -2 -9 -6 -4 -8 17
-7 17 1 37 8 44 15 10 11 10 12 1 7 -7 -4 -13 -2 -13 3 0 6 -5 11 -11 11 -8 0
-7 -6 2 -16z"/>
<path d="M3599 453 c0 -5 -3 -19 -5 -32 -2 -14 -2 -22 1 -19 8 8 17 58 10 58
-3 0 -5 -3 -6 -7z"/>
<path d="M3853 453 c4 -6 2 -13 -5 -15 -8 -3 -6 -6 4 -10 17 -7 19 15 3 29 -4
4 -5 3 -2 -4z"/>
<path d="M3913 445 c0 -8 4 -12 9 -9 5 3 6 10 3 15 -9 13 -12 11 -12 -6z"/>
<path d="M4081 446 c-11 -13 -39 -14 -59 -2 -5 3 -9 0 -9 -7 0 -19 54 -14 74
6 10 9 15 17 11 17 -3 0 -11 -6 -17 -14z"/>
<path d="M4290 450 c0 -5 5 -10 11 -10 5 0 7 5 4 10 -3 6 -8 10 -11 10 -2 0
-4 -4 -4 -10z"/>
<path d="M2075 439 c-4 -6 -5 -12 -2 -15 2 -3 7 2 10 11 7 17 1 20 -8 4z"/>
<path d="M2599 438 c15 -21 31 -23 31 -6 0 6 -3 8 -7 5 -3 -4 -13 -1 -22 6
-14 11 -14 10 -2 -5z"/>
<path d="M2716 441 c-3 -5 1 -11 9 -14 9 -4 12 -1 8 9 -6 16 -10 17 -17 5z"/>
<path d="M2753 431 c0 -11 5 -18 9 -15 4 3 5 11 1 19 -7 21 -12 19 -10 -4z"/>
<path d="M2790 440 c0 -5 5 -10 10 -10 6 0 10 5 10 10 0 6 -4 10 -10 10 -5 0
-10 -4 -10 -10z"/>
<path d="M2831 434 c0 -11 3 -14 6 -6 3 7 2 16 -1 19 -3 4 -6 -2 -5 -13z"/>
<path d="M3421 433 c-1 -13 -6 -22 -12 -20 -6 1 -13 -4 -14 -11 -2 -7 -1 -8 2
-2 2 5 9 8 14 4 11 -7 23 21 16 38 -3 7 -6 3 -6 -9z"/>
<path d="M3453 430 c1 -14 8 -24 15 -22 8 1 11 -6 8 -23 -3 -14 -1 -25 4 -25
5 0 8 11 7 25 -1 13 -6 24 -12 24 -5 0 -13 10 -17 23 -7 22 -7 22 -5 -2z"/>
<path d="M3482 434 c10 -10 20 -16 22 -13 3 3 -5 11 -17 18 -21 13 -21 12 -5
-5z"/>
<path d="M3890 436 c0 -8 4 -17 9 -20 5 -4 7 3 4 14 -6 23 -13 26 -13 6z"/>
<path d="M3110 431 c0 -5 5 -13 10 -16 6 -3 10 -2 10 4 0 5 -4 13 -10 16 -5 3
-10 2 -10 -4z"/>
<path d="M3151 424 c0 -11 3 -14 6 -6 3 7 2 16 -1 19 -3 4 -6 -2 -5 -13z"/>
<path d="M3530 430 c0 -5 5 -10 10 -10 6 0 10 5 10 10 0 6 -4 10 -10 10 -5 0
-10 -4 -10 -10z"/>
<path d="M3690 430 c0 -5 5 -10 10 -10 6 0 10 5 10 10 0 6 -4 10 -10 10 -5 0
-10 -4 -10 -10z"/>
<path d="M4110 436 c0 -2 7 -7 16 -10 8 -3 12 -2 9 4 -6 10 -25 14 -25 6z"/>
<path d="M4206 428 c3 -5 10 -6 15 -3 13 9 11 12 -6 12 -8 0 -12 -4 -9 -9z"/>
<path d="M2435 421 c-3 -5 -2 -12 3 -15 5 -3 9 1 9 9 0 17 -3 19 -12 6z"/>
<path d="M2877 423 c-4 -3 -7 -11 -7 -17 0 -6 5 -5 12 2 6 6 9 14 7 17 -3 3
-9 2 -12 -2z"/>
<path d="M3950 426 c0 -2 8 -10 18 -17 15 -13 16 -12 3 4 -13 16 -21 21 -21
13z"/>
<path d="M2511 403 c7 -12 15 -20 18 -17 3 2 -3 12 -13 22 -17 16 -18 16 -5
-5z"/>
<path d="M2776 412 c-2 -4 -1 -14 3 -21 6 -9 11 -10 15 -2 4 6 2 11 -4 11 -6
0 -8 5 -5 10 3 6 4 10 1 10 -3 0 -7 -4 -10 -8z"/>
<path d="M3070 410 c0 -5 7 -6 17 -3 12 5 14 3 8 -7 -5 -9 -4 -11 4 -6 6 4 9
12 6 17 -8 12 -35 12 -35 -1z"/>
<path d="M3270 411 c0 -6 4 -13 10 -16 6 -3 7 1 4 9 -7 18 -14 21 -14 7z"/>
<path d="M3615 411 c-6 -11 13 -26 22 -17 4 3 1 6 -6 6 -7 0 -9 5 -6 10 3 6 4
10 1 10 -3 0 -7 -4 -11 -9z"/>
<path d="M3735 410 c6 -10 4 -12 -11 -6 -15 6 -17 5 -6 -5 9 -9 15 -10 23 -2
8 8 7 13 -2 18 -8 6 -10 4 -4 -5z"/>
<path d="M4170 409 c0 -5 5 -7 10 -4 6 3 10 8 10 11 0 2 -4 4 -10 4 -5 0 -10
-5 -10 -11z"/>
<path d="M2355 399 c-4 -6 -5 -12 -2 -15 2 -3 7 2 10 11 7 17 1 20 -8 4z"/>
<path d="M2954 399 c-3 -6 1 -17 10 -25 9 -8 12 -9 7 -3 -5 6 -7 18 -4 25 6
17 -3 19 -13 3z"/>
<path d="M2986 393 c-6 -14 -5 -15 5 -6 7 7 10 15 7 18 -3 3 -9 -2 -12 -12z"/>
<path d="M3350 400 c0 -5 5 -10 10 -10 6 0 10 5 10 10 0 6 -4 10 -10 10 -5 0
-10 -4 -10 -10z"/>
<path d="M3507 397 c-3 -7 3 -13 13 -13 10 0 16 6 13 13 -3 7 -9 13 -13 13 -4
0 -10 -6 -13 -13z"/>
<path d="M3667 397 c-3 -8 1 -14 8 -14 7 0 11 6 8 14 -3 7 -6 13 -8 13 -2 0
-5 -6 -8 -13z"/>
<path d="M4014 390 c0 -13 4 -16 10 -10 7 7 7 13 0 20 -6 6 -10 3 -10 -10z"/>
<path d="M2467 389 c7 -7 15 -10 18 -7 3 3 -2 9 -12 12 -14 6 -15 5 -6 -5z"/>
<path d="M2685 389 c-3 -4 2 -6 10 -5 21 3 28 13 10 13 -9 0 -18 -4 -20 -8z"/>
<path d="M2811 384 c0 -11 3 -14 6 -6 3 7 2 16 -1 19 -3 4 -6 -2 -5 -13z"/>
<path d="M3051 384 c0 -11 3 -14 6 -6 3 7 2 16 -1 19 -3 4 -6 -2 -5 -13z"/>
<path d="M3130 390 c0 -5 5 -10 10 -10 6 0 10 5 10 10 0 6 -4 10 -10 10 -5 0
-10 -4 -10 -10z"/>
<path d="M3235 390 c-3 -5 -2 -10 4 -10 5 0 13 5 16 10 3 6 2 10 -4 10 -5 0
-13 -4 -16 -10z"/>
<path d="M3421 386 c-9 -11 -9 -16 1 -22 7 -4 10 -4 6 1 -4 4 0 14 10 21 9 7
12 14 6 14 -6 0 -17 -6 -23 -14z"/>
<path d="M4050 385 c5 -7 6 -16 2 -21 -4 -5 -3 -5 2 -1 15 12 15 34 0 34 -9 0
-11 -4 -4 -12z"/>
<path d="M3110 379 c0 -5 -6 -7 -12 -3 -7 4 -9 3 -5 -1 13 -15 36 -14 30 1 -6
17 -13 18 -13 3z"/>
<path d="M2671 363 c7 -12 15 -20 18 -17 3 2 -3 12 -13 22 -17 16 -18 16 -5
-5z"/>
<path d="M2908 362 c5 -9 8 -25 6 -35 -1 -11 0 -16 4 -12 12 12 9 54 -5 59
-10 4 -11 1 -5 -12z"/>
<path d="M3070 375 c0 -5 5 -17 10 -25 5 -8 10 -10 10 -5 0 6 -5 17 -10 25 -5
8 -10 11 -10 5z"/>
<path d="M3164 369 c-3 -6 -1 -16 5 -22 9 -9 10 -7 5 7 -6 15 -4 17 6 11 9 -5
11 -4 6 3 -9 15 -13 15 -22 1z"/>
<path d="M3215 355 c0 -13 3 -21 8 -18 4 2 7 10 7 18 0 8 -3 16 -7 18 -5 3 -8
-5 -8 -18z"/>
<path d="M3273 365 c0 -8 4 -12 9 -9 4 3 8 9 8 15 0 5 -4 9 -8 9 -5 0 -9 -7
-9 -15z"/>
<path d="M3393 352 c1 -16 7 -29 14 -29 7 0 9 5 5 11 -3 6 -7 17 -8 24 -4 27
-12 22 -11 -6z"/>
<path d="M3630 372 c0 -12 22 -32 35 -32 5 0 2 5 -8 11 -9 6 -15 14 -12 20 4
5 1 9 -4 9 -6 0 -11 -4 -11 -8z"/>
<path d="M3830 366 c7 -7 13 -7 20 0 6 6 3 10 -10 10 -13 0 -16 -4 -10 -10z"/>
<path d="M4133 359 c-2 -23 3 -25 10 -4 4 8 3 16 -1 19 -4 3 -9 -4 -9 -15z"/>
<path d="M2771 357 c-8 -10 -7 -14 2 -14 8 0 14 6 14 14 0 7 -1 13 -2 13 -2 0
-8 -6 -14 -13z"/>
<path d="M3020 360 c0 -5 -6 -7 -14 -4 -8 3 -16 1 -20 -4 -3 -5 5 -8 16 -7 19
1 41 25 24 25 -3 0 -6 -4 -6 -10z"/>
<path d="M3250 356 c0 -8 4 -17 9 -20 5 -4 7 3 4 14 -6 23 -13 26 -13 6z"/>
<path d="M3771 357 c-8 -10 -7 -14 2 -14 8 0 14 6 14 14 0 7 -1 13 -2 13 -2 0
-8 -6 -14 -13z"/>
<path d="M2596 352 c-3 -5 1 -9 9 -9 8 0 12 4 9 9 -3 4 -7 8 -9 8 -2 0 -6 -4
-9 -8z"/>
<path d="M2813 343 c0 -9 4 -10 14 -2 7 6 13 12 13 14 0 1 -6 2 -13 2 -8 0
-14 -6 -14 -14z"/>
<path d="M3043 348 c-11 -19 -13 -39 -1 -32 5 3 7 9 4 12 -3 3 -1 11 5 19 6 7
9 13 6 13 -3 0 -9 -6 -14 -12z"/>
<path d="M3335 349 c-4 -5 2 -6 12 -2 15 6 16 4 6 -8 -10 -12 -9 -15 5 -15 23
0 23 32 0 33 -10 1 -20 -2 -23 -8z"/>
<path d="M3570 351 c0 -6 4 -13 10 -16 6 -3 7 1 4 9 -7 18 -14 21 -14 7z"/>
<path d="M3717 345 c-4 -8 -3 -16 1 -19 4 -3 9 4 9 15 2 23 -3 25 -10 4z"/>
<path d="M3870 351 c0 -6 4 -13 10 -16 6 -3 7 1 4 9 -7 18 -14 21 -14 7z"/>
<path d="M2949 333 c-13 -16 -12 -17 4 -4 16 13 21 21 13 21 -2 0 -10 -8 -17
-17z"/>
<path d="M3120 346 c0 -2 7 -7 16 -10 8 -3 12 -2 9 4 -6 10 -25 14 -25 6z"/>
<path d="M3467 337 c-3 -7 3 -13 14 -13 13 0 15 3 7 13 -6 7 -12 13 -13 13 -2
0 -5 -6 -8 -13z"/>
<path d="M2870 326 c7 -7 13 -7 20 0 6 6 3 10 -10 10 -13 0 -16 -4 -10 -10z"/>
<path d="M4016 332 c-3 -5 1 -9 9 -9 8 0 12 4 9 9 -3 4 -7 8 -9 8 -2 0 -6 -4
-9 -8z"/>
<path d="M2676 317 c3 -10 9 -15 12 -12 3 3 0 11 -7 18 -10 9 -11 8 -5 -6z"/>
<path d="M2975 319 c-4 -6 -5 -12 -2 -15 2 -3 7 2 10 11 7 17 1 20 -8 4z"/>
<path d="M3173 317 c0 -9 21 -13 73 -12 40 0 71 3 69 6 -2 3 -30 5 -62 4 -32
-1 -63 2 -69 6 -6 5 -11 4 -11 -4z"/>
<path d="M3429 313 c-13 -16 -12 -17 4 -4 9 7 17 15 17 17 0 8 -8 3 -21 -13z"/>
<path d="M3519 317 c8 -9 16 -15 19 -12 3 3 10 0 17 -5 8 -7 12 -5 12 4 0 8
-7 13 -16 11 -9 -1 -23 3 -31 9 -13 10 -13 9 -1 -7z"/>
<path d="M2610 310 c0 -5 5 -10 11 -10 5 0 7 5 4 10 -3 6 -8 10 -11 10 -2 0
-4 -4 -4 -10z"/>
<path d="M2800 310 c-9 -6 -10 -10 -3 -10 6 0 15 5 18 10 8 12 4 12 -15 0z"/>
<path d="M2835 311 c-3 -5 -2 -12 3 -15 5 -3 9 1 9 9 0 17 -3 19 -12 6z"/>
<path d="M3346 288 c3 -5 10 -6 15 -3 13 9 11 12 -6 12 -8 0 -12 -4 -9 -9z"/>
<path d="M3389 287 c6 -8 7 -18 3 -22 -4 -5 -1 -5 6 -1 10 6 10 11 1 22 -6 8
-14 14 -16 14 -3 0 0 -6 6 -13z"/>
<path d="M3586 288 c3 -5 10 -6 15 -3 13 9 11 12 -6 12 -8 0 -12 -4 -9 -9z"/>
<path d="M3815 290 c-3 -5 -1 -10 4 -10 6 0 11 5 11 10 0 6 -2 10 -4 10 -3 0
-8 -4 -11 -10z"/>
<path d="M3874 292 c4 -3 14 -7 22 -8 9 -1 13 0 10 4 -4 3 -14 7 -22 8 -9 1
-13 0 -10 -4z"/>
<path d="M3173 275 c0 -8 4 -15 9 -15 4 0 8 4 8 9 0 6 -4 12 -8 15 -5 3 -9 -1
-9 -9z"/>
<path d="M3315 281 c-3 -5 -2 -12 3 -15 5 -3 9 1 9 9 0 17 -3 19 -12 6z"/>
<path d="M3096 272 c-3 -5 1 -9 9 -9 8 0 12 4 9 9 -3 4 -7 8 -9 8 -2 0 -6 -4
-9 -8z"/>
<path d="M3255 270 c3 -5 8 -10 11 -10 2 0 4 5 4 10 0 6 -5 10 -11 10 -5 0 -7
-4 -4 -10z"/>
</g>
</svg>
